<?xml version="1.0" standalone="no"?>
<!DOCTYPE svg PUBLIC "-//W3C//DTD SVG 1.1//EN"
 "http://www.w3.org/Graphics/SVG/1.1/DTD/svg11.dtd">
<!-- Created with svg_stack (http://github.com/astraw/svg_stack) -->
<svg xmlns:sodipodi="http://sodipodi.sourceforge.net/DTD/sodipodi-0.dtd" xmlns="http://www.w3.org/2000/svg" version="1.1" width="272.0" height="272.0">
  <defs/>
  <g id="id0:id0" transform="matrix(1.25,0,0,1.25,0.0,0.0)"><g transform="translate(0.000000,217.600000) scale(0.040000,-0.040000)" fill="#9b81d5" stroke="none">
<path d="M0 2720 l0 -2720 2720 0 2720 0 0 2720 0 2720 -2720 0 -2720 0 0 -2720z m4705 2542 c37 -15 108 -50 165 -83 86 -49 232 -207 268 -291 9 -21 20 -38 24 -38 5 0 8 -9 8 -20 0 -11 5 -20 10 -20 6 0 10 -9 10 -19 0 -11 6 -21 13 -23 18 -7 18 -3969 0 -3976 -7 -2 -13 -10 -13 -17 0 -19 -68 -146 -100 -188 -86 -112 -182 -188 -324 -258 l-101 -49 -1945 0 -1945 0 -101 49 c-142 70 -238 146 -324 258 -32 42 -100 169 -100 188 0 7 -6 15 -13 18 -18 6 -18 3968 1 3975 6 2 12 10 12 17 0 17 49 110 90 172 37 56 178 195 218 216 114 60 135 69 192 86 70 22 728 29 2305 24 1432 -5 1614 -7 1650 -21z"/>
</g>
</g>
  <g id="id1:id1" transform="matrix(1.25,0,0,1.25,0.0,0.0)"><g transform="translate(0.000000,217.600000) scale(0.040000,-0.040000)" fill="#c5b6e6" stroke="none">
<path d="M0 2720 l0 -2720 2720 0 2720 0 0 2720 0 2720 -2720 0 -2720 0 0 -2720z m4705 2542 c37 -15 108 -50 165 -83 86 -49 232 -207 268 -291 9 -21 20 -38 24 -38 5 0 8 -9 8 -20 0 -11 5 -20 10 -20 6 0 10 -9 10 -19 0 -11 6 -21 13 -23 18 -7 18 -3969 0 -3976 -7 -2 -13 -10 -13 -17 0 -19 -68 -146 -100 -188 -86 -112 -182 -188 -324 -258 l-101 -49 -1945 0 -1945 0 -101 49 c-142 70 -238 146 -324 258 -32 42 -100 169 -100 188 0 7 -6 15 -13 18 -18 6 -18 3968 1 3975 6 2 12 10 12 17 0 17 49 110 90 172 37 56 178 195 218 216 114 60 135 69 192 86 70 22 728 29 2305 24 1432 -5 1614 -7 1650 -21z"/>
</g>
</g>
  <g id="id2:id2" transform="matrix(1.25,0,0,1.25,0.0,0.0)"><g transform="translate(0.000000,217.600000) scale(0.040000,-0.040000)" fill="#8667cc" stroke="none">
<path d="M0 2720 l0 -2720 2720 0 2720 0 0 2720 0 2720 -2720 0 -2720 0 0 -2720z m4705 2542 c37 -15 108 -50 165 -83 86 -49 232 -207 268 -291 9 -21 20 -38 24 -38 5 0 8 -9 8 -20 0 -11 5 -20 10 -20 6 0 10 -9 10 -19 0 -11 6 -21 13 -23 18 -7 18 -3969 0 -3976 -7 -2 -13 -10 -13 -17 0 -19 -68 -146 -100 -188 -86 -112 -182 -188 -324 -258 l-101 -49 -1945 0 -1945 0 -101 49 c-142 70 -238 146 -324 258 -32 42 -100 169 -100 188 0 7 -6 15 -13 18 -18 6 -18 3968 1 3975 6 2 12 10 12 17 0 17 49 110 90 172 37 56 178 195 218 216 114 60 135 69 192 86 70 22 728 29 2305 24 1432 -5 1614 -7 1650 -21z"/>
</g>
</g>
  <g id="id3:id3" transform="matrix(1.25,0,0,1.25,0.0,0.0)"><g transform="translate(0.000000,217.600000) scale(0.040000,-0.040000)" fill="#000000" stroke="none">
<path d="M0 2720 l0 -2720 2720 0 2720 0 0 2720 0 2720 -2720 0 -2720 0 0 -2720z m4705 2542 c37 -15 108 -50 165 -83 86 -49 232 -207 268 -291 9 -21 20 -38 24 -38 5 0 8 -9 8 -20 0 -11 5 -20 10 -20 6 0 10 -9 10 -19 0 -11 6 -21 13 -23 18 -7 18 -3969 0 -3976 -7 -2 -13 -10 -13 -17 0 -19 -68 -146 -100 -188 -86 -112 -182 -188 -324 -258 l-101 -49 -1945 0 -1945 0 -101 49 c-142 70 -238 146 -324 258 -32 42 -100 169 -100 188 0 7 -6 15 -13 18 -18 6 -18 3968 1 3975 6 2 12 10 12 17 0 17 49 110 90 172 37 56 178 195 218 216 114 60 135 69 192 86 70 22 728 29 2305 24 1432 -5 1614 -7 1650 -21z"/>
</g>
</g>
  <g id="id4:id4" transform="matrix(1.25,0,0,1.25,0.0,0.0)"><g transform="translate(0.000000,217.600000) scale(0.040000,-0.040000)" fill="#b5a3e0" stroke="none">
<path d="M0 2720 l0 -2720 2720 0 2720 0 0 2720 0 2720 -2720 0 -2720 0 0 -2720z m4705 2542 c37 -15 108 -50 165 -83 86 -49 232 -207 268 -291 9 -21 20 -38 24 -38 5 0 8 -9 8 -20 0 -11 5 -20 10 -20 6 0 10 -9 10 -19 0 -11 6 -21 13 -23 18 -7 18 -3969 0 -3976 -7 -2 -13 -10 -13 -17 0 -19 -68 -146 -100 -188 -86 -112 -182 -188 -324 -258 l-101 -49 -1945 0 -1945 0 -101 49 c-142 70 -238 146 -324 258 -32 42 -100 169 -100 188 0 7 -6 15 -13 18 -18 6 -18 3968 1 3975 6 2 12 10 12 17 0 17 49 110 90 172 37 56 178 195 218 216 114 60 135 69 192 86 70 22 728 29 2305 24 1432 -5 1614 -7 1650 -21z"/>
</g>
</g>
  <g id="id5:id5" transform="matrix(1.25,0,0,1.25,0.0,0.0)"><g transform="translate(0.000000,217.600000) scale(0.040000,-0.040000)" fill="#ffffff" stroke="none">
<path d="M0 2720 l0 -2720 2720 0 2720 0 0 2720 0 2720 -2720 0 -2720 0 0 -2720z m4705 2542 c37 -15 108 -50 165 -83 86 -49 232 -207 268 -291 9 -21 20 -38 24 -38 5 0 8 -9 8 -20 0 -11 5 -20 10 -20 6 0 10 -9 10 -19 0 -11 6 -21 13 -23 18 -7 18 -3969 0 -3976 -7 -2 -13 -10 -13 -17 0 -19 -68 -146 -100 -188 -86 -112 -182 -188 -324 -258 l-101 -49 -1945 0 -1945 0 -101 49 c-142 70 -238 146 -324 258 -32 42 -100 169 -100 188 0 7 -6 15 -13 18 -18 6 -18 3968 1 3975 6 2 12 10 12 17 0 17 49 110 90 172 37 56 178 195 218 216 114 60 135 69 192 86 70 22 728 29 2305 24 1432 -5 1614 -7 1650 -21z"/>
<path d="M2560 4239 c-93 -12 -186 -29 -250 -46 -30 -8 -68 -18 -85 -23 -113 -29 -343 -147 -459 -235 -118 -88 -241 -205 -318 -302 -70 -90 -177 -276 -229 -398 -34 -83 -78 -244 -98 -366 -14 -86 -14 -392 0 -478 20 -122 64 -283 98 -366 31 -73 101 -209 133 -257 58 -87 50 -143 -32 -223 -23 -22 -48 -53 -57 -69 -13 -26 -13 -32 4 -63 17 -33 17 -35 1 -44 -10 -6 -18 -21 -18 -34 l0 -25 1470 0 1470 0 0 30 c0 20 -5 30 -15 30 -19 0 -19 21 0 46 24 32 17 51 -42 116 -32 35 -64 73 -70 85 -24 42 -16 90 25 151 32 48 102 184 133 257 34 83 78 244 98 366 14 86 14 392 0 478 -20 122 -64 283 -98 366 -52 122 -159 308 -229 398 -77 97 -200 214 -318 302 -116 88 -346 206 -459 235 -16 5 -55 15 -85 23 -190 50 -404 67 -570 46z m298 -780 c114 -25 141 -34 202 -62 129 -60 248 -155 328 -261 41 -53 113 -183 126 -226 4 -14 14 -50 23 -80 21 -71 24 -313 5 -385 -106 -393 -434 -655 -822 -655 -121 0 -236 25 -340 73 -245 114 -409 313 -482 582 -19 72 -16 314 5 385 9 30 19 66 23 80 13 43 85 173 126 226 107 141 295 269 448 304 30 7 69 16 85 21 45 11 220 10 273 -2z"/>
</g>
</g>
  <g id="id6:id6" transform="matrix(1.25,0,0,1.25,0.0,0.0)"><g transform="translate(0.000000,217.600000) scale(0.040000,-0.040000)" fill="#eae5f6" stroke="none">
<path d="M0 2720 l0 -2720 2720 0 2720 0 0 2720 0 2720 -2720 0 -2720 0 0 -2720z m4705 2542 c37 -15 108 -50 165 -83 86 -49 232 -207 268 -291 9 -21 20 -38 24 -38 5 0 8 -9 8 -20 0 -11 5 -20 10 -20 6 0 10 -9 10 -19 0 -11 6 -21 13 -23 18 -7 18 -3969 0 -3976 -7 -2 -13 -10 -13 -17 0 -19 -68 -146 -100 -188 -86 -112 -182 -188 -324 -258 l-101 -49 -1945 0 -1945 0 -101 49 c-142 70 -238 146 -324 258 -32 42 -100 169 -100 188 0 7 -6 15 -13 18 -18 6 -18 3968 1 3975 6 2 12 10 12 17 0 17 49 110 90 172 37 56 178 195 218 216 114 60 135 69 192 86 70 22 728 29 2305 24 1432 -5 1614 -7 1650 -21z"/>
<path d="M2583 4243 c9 -2 23 -2 30 0 6 3 -1 5 -18 5 -16 0 -22 -2 -12 -5z"/>
<path d="M2833 4243 c9 -2 23 -2 30 0 6 3 -1 5 -18 5 -16 0 -22 -2 -12 -5z"/>
<path d="M2488 4233 c12 -2 30 -2 40 0 9 3 -1 5 -23 4 -22 0 -30 -2 -17 -4z"/>
<path d="M2918 4233 c12 -2 30 -2 40 0 9 3 -1 5 -23 4 -22 0 -30 -2 -17 -4z"/>
<path d="M2373 4213 c9 -2 23 -2 30 0 6 3 -1 5 -18 5 -16 0 -22 -2 -12 -5z"/>
<path d="M3043 4213 c9 -2 23 -2 30 0 6 3 -1 5 -18 5 -16 0 -22 -2 -12 -5z"/>
<path d="M2288 4193 c6 -2 18 -2 25 0 6 3 1 5 -13 5 -14 0 -19 -2 -12 -5z"/>
<path d="M3128 4193 c6 -2 18 -2 25 0 6 3 1 5 -13 5 -14 0 -19 -2 -12 -5z"/>
<path d="M2228 4173 c7 -3 16 -2 19 1 4 3 -2 6 -13 5 -11 0 -14 -3 -6 -6z"/>
<path d="M3198 4173 c7 -3 16 -2 19 1 4 3 -2 6 -13 5 -11 0 -14 -3 -6 -6z"/>
<path d="M2030 4100 c-9 -6 -10 -10 -3 -10 6 0 15 5 18 10 8 12 4 12 -15 0z"/>
<path d="M3397 4099 c7 -7 15 -10 18 -7 3 3 -2 9 -12 12 -14 6 -15 5 -6 -5z"/>
<path d="M1990 4080 c-9 -6 -10 -10 -3 -10 6 0 15 5 18 10 8 12 4 12 -15 0z"/>
<path d="M3437 4079 c7 -7 15 -10 18 -7 3 3 -2 9 -12 12 -14 6 -15 5 -6 -5z"/>
<path d="M1950 4060 c-9 -6 -10 -10 -3 -10 6 0 15 5 18 10 8 12 4 12 -15 0z"/>
<path d="M3477 4059 c7 -7 15 -10 18 -7 3 3 -2 9 -12 12 -14 6 -15 5 -6 -5z"/>
<path d="M1904 4034 c-18 -14 -18 -15 4 -4 12 6 22 13 22 15 0 8 -5 6 -26 -11z"/>
<path d="M3510 4046 c0 -3 9 -10 20 -16 11 -6 20 -8 20 -6 0 3 -9 10 -20 16 -11 6 -20 8 -20 6z"/>
<path d="M1739 3923 c-13 -16 -12 -17 4 -4 16 13 21 21 13 21 -2 0 -10 -8 -17 -17z"/>
<path d="M3680 3936 c0 -2 8 -10 18 -17 15 -13 16 -12 3 4 -13 16 -21 21 -21 13z"/>
<path d="M1689 3883 c-13 -16 -12 -17 4 -4 9 7 17 15 17 17 0 8 -8 3 -21 -13z"/>
<path d="M3730 3896 c0 -2 8 -10 18 -17 15 -13 16 -12 3 4 -13 16 -21 21 -21 13z"/>
<path d="M1615 3818 l-40 -43 43 40 c39 36 47 45 39 45 -2 0 -21 -19 -42 -42z"/>
<path d="M3815 3820 c21 -22 41 -40 44 -40 3 0 -13 18 -34 40 -21 22 -41 40 -44 40 -3 0 13 -18 34 -40z"/>
<path d="M1525 3728 l-40 -43 43 40 c39 36 47 45 39 45 -2 0 -21 -19 -42 -42z"/>
<path d="M3905 3730 c21 -22 41 -40 44 -40 3 0 -13 18 -34 40 -21 22 -41 40 -44 40 -3 0 13 -18 34 -40z"/>
<path d="M1450 3645 c-7 -9 -11 -17 -9 -20 3 -2 10 5 17 15 14 24 10 26 -8 5z"/>
<path d="M3981 3643 c7 -12 15 -20 18 -17 3 2 -3 12 -13 22 -17 16 -18 16 -5 -5z"/>
<path d="M1373 3538 c-15 -20 -25 -38 -20 -38 3 0 12 11 21 25 17 26 16 35 -1 13z"/>
<path d="M4065 3526 c10 -14 19 -26 22 -26 7 0 -17 39 -28 46 -6 3 -3 -5 6 -20z"/>
<path d="M2663 3463 c31 -2 83 -2 115 0 31 2 5 3 -58 3 -63 0 -89 -1 -57 -3z"/>
<path d="M2518 3443 c6 -2 18 -2 25 0 6 3 1 5 -13 5 -14 0 -19 -2 -12 -5z"/>
<path d="M2898 3443 c6 -2 18 -2 25 0 6 3 1 5 -13 5 -14 0 -19 -2 -12 -5z"/>
<path d="M1296 3413 c-6 -14 -5 -15 5 -6 7 7 10 15 7 18 -3 3 -9 -2 -12 -12z"/>
<path d="M2413 3414 c-18 -8 -33 -16 -33 -19 0 -4 79 24 89 32 11 8 -27 0 -56 -13z"/>
<path d="M2971 3427 c9 -8 89 -36 89 -32 0 6 -69 35 -83 35 -6 0 -8 -2 -6 -3z"/>
<path d="M4130 3421 c0 -6 4 -13 10 -16 6 -3 7 1 4 9 -7 18 -14 21 -14 7z"/>
<path d="M1276 3373 c-6 -14 -5 -15 5 -6 7 7 10 15 7 18 -3 3 -9 -2 -12 -12z"/>
<path d="M4150 3381 c0 -6 4 -13 10 -16 6 -3 7 1 4 9 -7 18 -14 21 -14 7z"/>
<path d="M2305 3360 c-3 -6 1 -7 9 -4 18 7 21 14 7 14 -6 0 -13 -4 -16 -10z"/>
<path d="M3110 3366 c0 -2 7 -7 16 -10 8 -3 12 -2 9 4 -6 10 -25 14 -25 6z"/>
<path d="M1256 3333 c-6 -14 -5 -15 5 -6 7 7 10 15 7 18 -3 3 -9 -2 -12 -12z"/>
<path d="M4170 3341 c0 -6 4 -13 10 -16 6 -3 7 1 4 9 -7 18 -14 21 -14 7z"/>
<path d="M2209 3293 c-13 -16 -12 -17 4 -4 9 7 17 15 17 17 0 8 -8 3 -21 -13z"/>
<path d="M3210 3306 c0 -2 8 -10 18 -17 15 -13 16 -12 3 4 -13 16 -21 21 -21 13z"/>
<path d="M2154 3248 l-29 -33 33 29 c30 28 37 36 29 36 -2 0 -16 -15 -33 -32z"/>
<path d="M3250 3277 c0 -2 15 -16 33 -33 l32 -29 -29 33 c-28 30 -36 37 -36 29z"/>
<path d="M1217 3251 c-4 -17 -3 -21 5 -13 5 5 8 16 6 23 -3 8 -7 3 -11 -10z"/>
<path d="M4210 3256 c0 -8 4 -17 9 -20 5 -4 7 3 4 14 -6 23 -13 26 -13 6z"/>
<path d="M1201 3204 c0 -11 3 -14 6 -6 3 7 2 16 -1 19 -3 4 -6 -2 -5 -13z"/>
<path d="M4231 3204 c0 -11 3 -14 6 -6 3 7 2 16 -1 19 -3 4 -6 -2 -5 -13z"/>
<path d="M2089 3183 l-24 -28 28 24 c25 23 32 31 24 31 -2 0 -14 -12 -28 -27z"/>
<path d="M3340 3185 c13 -14 26 -25 28 -25 3 0 -5 11 -18 25 -13 14 -26 25 -28 25 -3 0 5 -11 18 -25z"/>
<path d="M1181 3153 c-1 -6 -4 -20 -7 -30 -5 -17 -5 -17 6 0 6 10 9 23 6 30 -3 9 -5 9 -5 0z"/>
<path d="M4251 3150 c0 -8 4 -22 9 -30 12 -18 12 -2 0 25 -6 13 -9 15 -9 5z"/>
<path d="M2032 3113 c-26 -38 -34 -53 -29 -53 2 0 16 18 31 40 29 45 28 56 -2 13z"/>
<path d="M3405 3103 c15 -24 30 -43 32 -43 7 0 -31 61 -46 73 -8 7 -2 -7 14 -30z"/>
<path d="M1161 3084 c0 -11 3 -14 6 -6 3 7 2 16 -1 19 -3 4 -6 -2 -5 -13z"/>
<path d="M4271 3084 c0 -11 3 -14 6 -6 3 7 2 16 -1 19 -3 4 -6 -2 -5 -13z"/>
<path d="M1142 3010 c0 -14 2 -19 5 -12 2 6 2 18 0 25 -3 6 -5 1 -5 -13z"/>
<path d="M4292 3010 c0 -14 2 -19 5 -12 2 6 2 18 0 25 -3 6 -5 1 -5 -13z"/>
<path d="M1933 2935 c-3 -9 -3 -18 -1 -21 3 -3 8 4 11 16 6 23 -1 27 -10 5z"/>
<path d="M3497 2929 c4 -13 8 -18 11 -10 2 7 -1 18 -6 23 -8 8 -9 4 -5 -13z"/>
<path d="M1122 2910 c0 -19 2 -27 5 -17 2 9 2 25 0 35 -3 9 -5 1 -5 -18z"/>
<path d="M4312 2910 c0 -19 2 -27 5 -17 2 9 2 25 0 35 -3 9 -5 1 -5 -18z"/>
<path d="M1912 2860 c0 -14 2 -19 5 -12 2 6 2 18 0 25 -3 6 -5 1 -5 -13z"/>
<path d="M3522 2860 c0 -14 2 -19 5 -12 2 6 2 18 0 25 -3 6 -5 1 -5 -13z"/>
<path d="M1111 2844 c0 -11 3 -14 6 -6 3 7 2 16 -1 19 -3 4 -6 -2 -5 -13z"/>
<path d="M4321 2844 c0 -11 3 -14 6 -6 3 7 2 16 -1 19 -3 4 -6 -2 -5 -13z"/>
<path d="M1104 2630 c0 -102 2 -143 3 -92 2 50 2 134 0 185 -1 50 -3 9 -3 -93z"/>
<path d="M4334 2630 c0 -102 2 -143 3 -92 2 50 2 134 0 185 -1 50 -3 9 -3 -93z"/>
<path d="M1892 2770 c0 -19 2 -27 5 -17 2 9 2 25 0 35 -3 9 -5 1 -5 -18z"/>
<path d="M3542 2770 c0 -19 2 -27 5 -17 2 9 2 25 0 35 -3 9 -5 1 -5 -18z"/>
<path d="M1883 2685 c0 -22 2 -30 4 -17 2 12 2 30 0 40 -3 9 -5 -1 -4 -23z"/>
<path d="M3553 2685 c0 -22 2 -30 4 -17 2 12 2 30 0 40 -3 9 -5 -1 -4 -23z"/>
<path d="M1883 2575 c0 -22 2 -30 4 -17 2 12 2 30 0 40 -3 9 -5 -1 -4 -23z"/>
<path d="M3553 2575 c0 -22 2 -30 4 -17 2 12 2 30 0 40 -3 9 -5 -1 -4 -23z"/>
<path d="M1892 2490 c0 -19 2 -27 5 -17 2 9 2 25 0 35 -3 9 -5 1 -5 -18z"/>
<path d="M3542 2490 c0 -19 2 -27 5 -17 2 9 2 25 0 35 -3 9 -5 1 -5 -18z"/>
<path d="M1111 2414 c0 -11 3 -14 6 -6 3 7 2 16 -1 19 -3 4 -6 -2 -5 -13z"/>
<path d="M4321 2414 c0 -11 3 -14 6 -6 3 7 2 16 -1 19 -3 4 -6 -2 -5 -13z"/>
<path d="M1912 2400 c0 -14 2 -19 5 -12 2 6 2 18 0 25 -3 6 -5 1 -5 -13z"/>
<path d="M3522 2400 c0 -14 2 -19 5 -12 2 6 2 18 0 25 -3 6 -5 1 -5 -13z"/>
<path d="M1122 2350 c0 -19 2 -27 5 -17 2 9 2 25 0 35 -3 9 -5 1 -5 -18z"/>
<path d="M4312 2350 c0 -19 2 -27 5 -17 2 9 2 25 0 35 -3 9 -5 1 -5 -18z"/>
<path d="M1142 2250 c0 -14 2 -19 5 -12 2 6 2 18 0 25 -3 6 -5 1 -5 -13z"/>
<path d="M4292 2250 c0 -14 2 -19 5 -12 2 6 2 18 0 25 -3 6 -5 1 -5 -13z"/>
<path d="M2017 2169 c10 -17 24 -36 32 -42 8 -7 2 7 -14 31 -32 49 -45 57 -18 11z"/>
<path d="M3405 2158 c-16 -24 -22 -38 -14 -31 15 12 53 73 46 73 -2 0 -17 -19 -32 -42z"/>
<path d="M1161 2174 c0 -11 3 -14 6 -6 3 7 2 16 -1 19 -3 4 -6 -2 -5 -13z"/>
<path d="M4271 2174 c0 -11 3 -14 6 -6 3 7 2 16 -1 19 -3 4 -6 -2 -5 -13z"/>
<path d="M1171 2145 c1 -19 18 -51 18 -35 0 8 -4 22 -9 30 -5 8 -9 11 -9 5z"/>
<path d="M4256 2135 c-3 -9 -6 -22 -5 -28 0 -7 5 -1 10 12 5 13 8 26 5 28 -2 2 -6 -3 -10 -12z"/>
<path d="M2090 2075 c13 -14 26 -25 28 -25 3 0 -5 11 -18 25 -13 14 -26 25 -28 25 -3 0 5 -11 18 -25z"/>
<path d="M3339 2073 l-24 -28 28 24 c25 23 32 31 24 31 -2 0 -14 -12 -28 -27z"/>
<path d="M1201 2054 c0 -11 3 -14 6 -6 3 7 2 16 -1 19 -3 4 -6 -2 -5 -13z"/>
<path d="M4231 2054 c0 -11 3 -14 6 -6 3 7 2 16 -1 19 -3 4 -6 -2 -5 -13z"/>
<path d="M2130 2037 c0 -2 15 -16 33 -33 l32 -29 -29 33 c-28 30 -36 37 -36 29z"/>
<path d="M3274 2008 l-29 -33 33 29 c30 28 37 36 29 36 -2 0 -16 -15 -33 -32z"/>
<path d="M1217 2009 c4 -13 8 -18 11 -10 2 7 -1 18 -6 23 -8 8 -9 4 -5 -13z"/>
<path d="M4213 2015 c-3 -9 -3 -18 -1 -21 3 -3 8 4 11 16 6 23 -1 27 -10 5z"/>
<path d="M2200 1976 c0 -2 8 -10 18 -17 15 -13 16 -12 3 4 -13 16 -21 21 -21 13z"/>
<path d="M3219 1963 c-13 -16 -12 -17 4 -4 16 13 21 21 13 21 -2 0 -10 -8 -17 -17z"/>
<path d="M1256 1927 c3 -10 9 -15 12 -12 3 3 0 11 -7 18 -10 9 -11 8 -5 -6z"/>
<path d="M4175 1929 c-4 -6 -5 -12 -2 -15 2 -3 7 2 10 11 7 17 1 20 -8 4z"/>
<path d="M2307 1899 c7 -7 15 -10 18 -7 3 3 -2 9 -12 12 -14 6 -15 5 -6 -5z"/>
<path d="M3120 1900 c-9 -6 -10 -10 -3 -10 6 0 15 5 18 10 8 12 4 12 -15 0z"/>
<path d="M1276 1887 c3 -10 9 -15 12 -12 3 3 0 11 -7 18 -10 9 -11 8 -5 -6z"/>
<path d="M4155 1889 c-4 -6 -5 -12 -2 -15 2 -3 7 2 10 11 7 17 1 20 -8 4z"/>
<path d="M2380 1865 c0 -7 73 -36 82 -33 5 2 -11 11 -37 20 -25 9 -45 15 -45 13z"/>
<path d="M3010 1850 c-25 -10 -40 -19 -34 -19 14 -1 84 28 84 34 0 6 3 7 -50 -15z"/>
<path d="M1296 1847 c3 -10 9 -15 12 -12 3 3 0 11 -7 18 -10 9 -11 8 -5 -6z"/>
<path d="M4135 1849 c-4 -6 -5 -12 -2 -15 2 -3 7 2 10 11 7 17 1 20 -8 4z"/>
<path d="M2518 1813 c6 -2 18 -2 25 0 6 3 1 5 -13 5 -14 0 -19 -2 -12 -5z"/>
<path d="M2898 1813 c6 -2 18 -2 25 0 6 3 1 5 -13 5 -14 0 -19 -2 -12 -5z"/>
<path d="M2663 1793 c31 -2 83 -2 115 0 31 2 5 3 -58 3 -63 0 -89 -1 -57 -3z"/>
<path d="M1359 1745 c17 -33 31 -51 31 -40 0 6 -10 21 -21 35 -13 17 -17 18 -10 5z"/>
<path d="M4065 1734 c-9 -14 -15 -27 -13 -30 2 -2 12 10 22 26 21 37 15 40 -9 4z"/>
<path d="M1379 1652 c-3 -20 -2 -29 4 -23 5 5 7 19 5 32 -3 20 -5 19 -9 -9z"/>
<path d="M4050 1656 c0 -14 4 -27 8 -30 5 -3 6 8 4 25 -5 35 -12 38 -12 5z"/>
<path d="M1351 1587 c-13 -21 -12 -21 5 -5 10 10 16 20 13 22 -3 3 -11 -5 -18 -17z"/>
<path d="M4070 1603 c0 -6 8 -17 18 -24 16 -13 16 -13 2 6 -8 11 -16 22 -17 24 -2 2 -3 0 -3 -6z"/>
<path d="M4145 1520 c10 -11 20 -20 23 -20 3 0 -3 9 -13 20 -10 11 -20 20 -23 20 -3 0 3 -9 13 -20z"/>
<path d="M1255 1370 c-3 -6 1 -7 9 -4 18 7 21 14 7 14 -6 0 -13 -4 -16 -10z"/>
<path d="M4191 1338 l-1 -28 -1469 0 c-1465 0 -1470 0 -1474 20 -4 17 -4 16 -3 -2 l1 -23 1473 -3 c1581 -2 1492 -5 1479 45 -3 12 -5 8 -6 -9z"/>
</g>
</g>
  <g id="id7:id7" transform="matrix(1.25,0,0,1.25,0.0,0.0)"><g transform="translate(0.000000,217.600000) scale(0.040000,-0.040000)" fill="#d5caed" stroke="none">
<path d="M0 2720 l0 -2720 2720 0 2720 0 0 2720 0 2720 -2720 0 -2720 0 0 -2720z m4705 2542 c37 -15 108 -50 165 -83 86 -49 232 -207 268 -291 9 -21 20 -38 24 -38 5 0 8 -9 8 -20 0 -11 5 -20 10 -20 6 0 10 -9 10 -19 0 -11 6 -21 13 -23 18 -7 18 -3969 0 -3976 -7 -2 -13 -10 -13 -17 0 -19 -68 -146 -100 -188 -86 -112 -182 -188 -324 -258 l-101 -49 -1945 0 -1945 0 -101 49 c-142 70 -238 146 -324 258 -32 42 -100 169 -100 188 0 7 -6 15 -13 18 -18 6 -18 3968 1 3975 6 2 12 10 12 17 0 17 49 110 90 172 37 56 178 195 218 216 114 60 135 69 192 86 70 22 728 29 2305 24 1432 -5 1614 -7 1650 -21z"/>
</g>
</g>
  <g id="id8:id8" transform="matrix(1.25,0,0,1.25,0.0,0.0)"><g transform="translate(0.000000,217.600000) scale(0.040000,-0.040000)" fill="#c0b0e5" stroke="none">
<path d="M0 2720 l0 -2720 2720 0 2720 0 0 2720 0 2720 -2720 0 -2720 0 0 -2720z m4705 2542 c37 -15 108 -50 165 -83 86 -49 232 -207 268 -291 9 -21 20 -38 24 -38 5 0 8 -9 8 -20 0 -11 5 -20 10 -20 6 0 10 -9 10 -19 0 -11 6 -21 13 -23 18 -7 18 -3969 0 -3976 -7 -2 -13 -10 -13 -17 0 -19 -68 -146 -100 -188 -86 -112 -182 -188 -324 -258 l-101 -49 -1945 0 -1945 0 -101 49 c-142 70 -238 146 -324 258 -32 42 -100 169 -100 188 0 7 -6 15 -13 18 -18 6 -18 3968 1 3975 6 2 12 10 12 17 0 17 49 110 90 172 37 56 178 195 218 216 114 60 135 69 192 86 70 22 728 29 2305 24 1432 -5 1614 -7 1650 -21z"/>
<path d="M4655 5250 c3 -5 11 -10 16 -10 6 0 7 5 4 10 -3 6 -11 10 -16 10 -6 0 -7 -4 -4 -10z"/>
<path d="M246 4723 c-6 -14 -5 -15 5 -6 7 7 10 15 7 18 -3 3 -9 -2 -12 -12z"/>
<path d="M5180 4731 c0 -6 4 -13 10 -16 6 -3 7 1 4 9 -7 18 -14 21 -14 7z"/>
<path d="M2573 4253 c9 -2 25 -2 35 0 9 3 1 5 -18 5 -19 0 -27 -2 -17 -5z"/>
<path d="M2833 4253 c9 -2 25 -2 35 0 9 3 1 5 -18 5 -19 0 -27 -2 -17 -5z"/>
<path d="M2508 4243 c6 -2 18 -2 25 0 6 3 1 5 -13 5 -14 0 -19 -2 -12 -5z"/>
<path d="M2908 4243 c6 -2 18 -2 25 0 6 3 1 5 -13 5 -14 0 -19 -2 -12 -5z"/>
<path d="M1624 3838 l-19 -23 23 19 c21 18 27 26 19 26 -2 0 -12 -10 -23 -22z"/>
<path d="M3805 3840 c10 -11 20 -20 23 -20 3 0 -3 9 -13 20 -10 11 -20 20 -23 20 -3 0 3 -9 13 -20z"/>
<path d="M1494 3708 l-19 -23 23 19 c21 18 27 26 19 26 -2 0 -12 -10 -23 -22z"/>
<path d="M3935 3710 c10 -11 20 -20 23 -20 3 0 -3 9 -13 20 -10 11 -20 20 -23 20 -3 0 3 -9 13 -20z"/>
<path d="M2628 3453 c7 -3 16 -2 19 1 4 3 -2 6 -13 5 -11 0 -14 -3 -6 -6z"/>
<path d="M2798 3453 c7 -3 16 -2 19 1 4 3 -2 6 -13 5 -11 0 -14 -3 -6 -6z"/>
<path d="M2578 3443 c7 -3 16 -2 19 1 4 3 -2 6 -13 5 -11 0 -14 -3 -6 -6z"/>
<path d="M2848 3443 c7 -3 16 -2 19 1 4 3 -2 6 -13 5 -11 0 -14 -3 -6 -6z"/>
<path d="M2135 3218 l-40 -43 43 40 c39 36 47 45 39 45 -2 0 -21 -19 -42 -42z"/>
<path d="M3295 3220 c21 -22 41 -40 44 -40 3 0 -13 18 -34 40 -21 22 -41 40 -44 40 -3 0 13 -18 34 -40z"/>
<path d="M1101 2854 c0 -11 3 -14 6 -6 3 7 2 16 -1 19 -3 4 -6 -2 -5 -13z"/>
<path d="M4331 2854 c0 -11 3 -14 6 -6 3 7 2 16 -1 19 -3 4 -6 -2 -5 -13z"/>
<path d="M1093 2700 c0 -25 2 -35 4 -22 2 12 2 32 0 45 -2 12 -4 2 -4 -23z"/>
<path d="M4343 2700 c0 -25 2 -35 4 -22 2 12 2 32 0 45 -2 12 -4 2 -4 -23z"/>
<path d="M1893 2675 c0 -22 2 -30 4 -17 2 12 2 30 0 40 -3 9 -5 -1 -4 -23z"/>
<path d="M3543 2675 c0 -22 2 -30 4 -17 2 12 2 30 0 40 -3 9 -5 -1 -4 -23z"/>
<path d="M1893 2585 c0 -22 2 -30 4 -17 2 12 2 30 0 40 -3 9 -5 -1 -4 -23z"/>
<path d="M3543 2585 c0 -22 2 -30 4 -17 2 12 2 30 0 40 -3 9 -5 -1 -4 -23z"/>
<path d="M1093 2560 c0 -25 2 -35 4 -22 2 12 2 32 0 45 -2 12 -4 2 -4 -23z"/>
<path d="M4343 2560 c0 -25 2 -35 4 -22 2 12 2 32 0 45 -2 12 -4 2 -4 -23z"/>
<path d="M1101 2404 c0 -11 3 -14 6 -6 3 7 2 16 -1 19 -3 4 -6 -2 -5 -13z"/>
<path d="M4331 2404 c0 -11 3 -14 6 -6 3 7 2 16 -1 19 -3 4 -6 -2 -5 -13z"/>
<path d="M2135 2040 c21 -22 41 -40 44 -40 3 0 -13 18 -34 40 -21 22 -41 40 -44 40 -3 0 13 -18 34 -40z"/>
<path d="M3295 2038 l-40 -43 43 40 c39 36 47 45 39 45 -2 0 -21 -19 -42 -42z"/>
<path d="M2578 1813 c7 -3 16 -2 19 1 4 3 -2 6 -13 5 -11 0 -14 -3 -6 -6z"/>
<path d="M2848 1813 c7 -3 16 -2 19 1 4 3 -2 6 -13 5 -11 0 -14 -3 -6 -6z"/>
<path d="M2628 1803 c7 -3 16 -2 19 1 4 3 -2 6 -13 5 -11 0 -14 -3 -6 -6z"/>
<path d="M2798 1803 c7 -3 16 -2 19 1 4 3 -2 6 -13 5 -11 0 -14 -3 -6 -6z"/>
<path d="M4150 1525 c13 -14 26 -25 28 -25 3 0 -5 11 -18 25 -13 14 -26 25 -28 25 -3 0 5 -11 18 -25z"/>
<path d="M1274 1518 l-19 -23 23 19 c21 18 27 26 19 26 -2 0 -12 -10 -23 -22z"/>
<path d="M246 837 c3 -10 9 -15 12 -12 3 3 0 11 -7 18 -10 9 -11 8 -5 -6z"/>
<path d="M5185 839 c-4 -6 -5 -12 -2 -15 2 -3 7 2 10 11 7 17 1 20 -8 4z"/>
<path d="M760 316 c0 -2 7 -7 16 -10 8 -3 12 -2 9 4 -6 10 -25 14 -25 6z"/>
<path d="M4655 310 c-3 -6 1 -7 9 -4 18 7 21 14 7 14 -6 0 -13 -4 -16 -10z"/>
</g>
</g>
  <g id="id9:id9" transform="matrix(1.25,0,0,1.25,0.0,0.0)"><g transform="translate(0.000000,217.600000) scale(0.040000,-0.040000)" fill="#ac97dc" stroke="none">
<path d="M0 2720 l0 -2720 2720 0 2720 0 0 2720 0 2720 -2720 0 -2720 0 0 -2720z m4705 2542 c37 -15 108 -50 165 -83 86 -49 232 -207 268 -291 9 -21 20 -38 24 -38 5 0 8 -9 8 -20 0 -11 5 -20 10 -20 6 0 10 -9 10 -19 0 -11 6 -21 13 -23 18 -7 18 -3969 0 -3976 -7 -2 -13 -10 -13 -17 0 -19 -68 -146 -100 -188 -86 -112 -182 -188 -324 -258 l-101 -49 -1945 0 -1945 0 -101 49 c-142 70 -238 146 -324 258 -32 42 -100 169 -100 188 0 7 -6 15 -13 18 -18 6 -18 3968 1 3975 6 2 12 10 12 17 0 17 49 110 90 172 37 56 178 195 218 216 114 60 135 69 192 86 70 22 728 29 2305 24 1432 -5 1614 -7 1650 -21z"/>
<path d="M1664 3878 l-19 -23 23 19 c21 18 27 26 19 26 -2 0 -12 -10 -23 -22z"/>
<path d="M3765 3880 c10 -11 20 -20 23 -20 3 0 -3 9 -13 20 -10 11 -20 20 -23 20 -3 0 3 -9 13 -20z"/>
<path d="M2683 3453 c20 -2 54 -2 75 0 20 2 3 4 -38 4 -41 0 -58 -2 -37 -4z"/>
<path d="M2074 3148 l-19 -23 23 19 c21 18 27 26 19 26 -2 0 -12 -10 -23 -22z"/>
<path d="M3355 3150 c10 -11 20 -20 23 -20 3 0 -3 9 -13 20 -10 11 -20 20 -23 20 -3 0 3 -9 13 -20z"/>
<path d="M1092 2765 c0 -16 2 -22 5 -12 2 9 2 23 0 30 -3 6 -5 -1 -5 -18z"/>
<path d="M4342 2765 c0 -16 2 -22 5 -12 2 9 2 23 0 30 -3 6 -5 -1 -5 -18z"/>
<path d="M1901 2764 c0 -11 3 -14 6 -6 3 7 2 16 -1 19 -3 4 -6 -2 -5 -13z"/>
<path d="M3531 2764 c0 -11 3 -14 6 -6 3 7 2 16 -1 19 -3 4 -6 -2 -5 -13z"/>
<path d="M1083 2630 c0 -25 2 -35 4 -22 2 12 2 32 0 45 -2 12 -4 2 -4 -23z"/>
<path d="M4353 2630 c0 -25 2 -35 4 -22 2 12 2 32 0 45 -2 12 -4 2 -4 -23z"/>
<path d="M1092 2495 c0 -16 2 -22 5 -12 2 9 2 23 0 30 -3 6 -5 -1 -5 -18z"/>
<path d="M4342 2495 c0 -16 2 -22 5 -12 2 9 2 23 0 30 -3 6 -5 -1 -5 -18z"/>
<path d="M1901 2494 c0 -11 3 -14 6 -6 3 7 2 16 -1 19 -3 4 -6 -2 -5 -13z"/>
<path d="M3531 2494 c0 -11 3 -14 6 -6 3 7 2 16 -1 19 -3 4 -6 -2 -5 -13z"/>
<path d="M2075 2110 c10 -11 20 -20 23 -20 3 0 -3 9 -13 20 -10 11 -20 20 -23 20 -3 0 3 -9 13 -20z"/>
<path d="M3354 2108 l-19 -23 23 19 c12 11 22 21 22 23 0 8 -8 2 -26 -19z"/>
<path d="M2683 1803 c20 -2 54 -2 75 0 20 2 3 4 -38 4 -41 0 -58 -2 -37 -4z"/>
<path d="M1314 1558 l-19 -23 23 19 c21 18 27 26 19 26 -2 0 -12 -10 -23 -22z"/>
<path d="M4100 1576 c0 -2 8 -10 18 -17 15 -13 16 -12 3 4 -13 16 -21 21 -21 13z"/>
</g>
</g>
  <g id="id10:id10" transform="matrix(1.25,0,0,1.25,0.0,0.0)"><g transform="translate(0.000000,217.600000) scale(0.040000,-0.040000)" fill="#9c83d5" stroke="none">
<path d="M0 2720 l0 -2720 2720 0 2720 0 0 2720 0 2720 -2720 0 -2720 0 0 -2720z m4705 2542 c37 -15 108 -50 165 -83 86 -49 232 -207 268 -291 9 -21 20 -38 24 -38 5 0 8 -9 8 -20 0 -11 5 -20 10 -20 6 0 10 -9 10 -19 0 -11 6 -21 13 -23 18 -7 18 -3969 0 -3976 -7 -2 -13 -10 -13 -17 0 -19 -68 -146 -100 -188 -86 -112 -182 -188 -324 -258 l-101 -49 -1945 0 -1945 0 -101 49 c-142 70 -238 146 -324 258 -32 42 -100 169 -100 188 0 7 -6 15 -13 18 -18 6 -18 3968 1 3975 6 2 12 10 12 17 0 17 49 110 90 172 37 56 178 195 218 216 114 60 135 69 192 86 70 22 728 29 2305 24 1432 -5 1614 -7 1650 -21z"/>
<path d="M4627 5249 c7 -7 15 -10 18 -7 3 3 -2 9 -12 12 -14 6 -15 5 -6 -5z"/>
<path d="M4660 5236 c0 -2 13 -6 29 -8 17 -2 28 -1 25 4 -5 8 -54 12 -54 4z"/>
<path d="M264 4766 c-3 -8 -4 -23 -2 -33 3 -11 6 -6 9 15 6 34 2 42 -7 18z"/>
<path d="M5169 4748 c4 -28 6 -29 9 -9 2 13 0 27 -5 32 -6 6 -7 -3 -4 -23z"/>
<path d="M5180 4701 c0 -6 4 -13 10 -16 6 -3 7 1 4 9 -7 18 -14 21 -14 7z"/>
<path d="M2658 4263 c34 -2 90 -2 125 0 34 2 6 3 -63 3 -69 0 -97 -1 -62 -3z"/>
<path d="M2518 4253 c7 -3 16 -2 19 1 4 3 -2 6 -13 5 -11 0 -14 -3 -6 -6z"/>
<path d="M2908 4253 c7 -3 16 -2 19 1 4 3 -2 6 -13 5 -11 0 -14 -3 -6 -6z"/>
<path d="M2448 4243 c6 -2 18 -2 25 0 6 3 1 5 -13 5 -14 0 -19 -2 -12 -5z"/>
<path d="M2968 4243 c6 -2 18 -2 25 0 6 3 1 5 -13 5 -14 0 -19 -2 -12 -5z"/>
<path d="M2348 4223 c7 -3 16 -2 19 1 4 3 -2 6 -13 5 -11 0 -14 -3 -6 -6z"/>
<path d="M3078 4223 c7 -3 16 -2 19 1 4 3 -2 6 -13 5 -11 0 -14 -3 -6 -6z"/>
<path d="M2268 4203 c7 -3 16 -2 19 1 4 3 -2 6 -13 5 -11 0 -14 -3 -6 -6z"/>
<path d="M3158 4203 c7 -3 16 -2 19 1 4 3 -2 6 -13 5 -11 0 -14 -3 -6 -6z"/>
<path d="M1729 3933 c-13 -16 -12 -17 4 -4 9 7 17 15 17 17 0 8 -8 3 -21 -13z"/>
<path d="M3690 3946 c0 -2 8 -10 18 -17 15 -13 16 -12 3 4 -13 16 -21 21 -21 13z"/>
<path d="M1560 3785 c-41 -41 -72 -75 -69 -75 2 0 38 34 79 75 41 41 72 75 69 75 -2 0 -38 -34 -79 -75z"/>
<path d="M3800 3857 c0 -1 35 -36 78 -77 l77 -75 -75 78 c-69 71 -80 82 -80 74z"/>
<path d="M1439 3653 c-13 -16 -12 -17 4 -4 9 7 17 15 17 17 0 8 -8 3 -21 -13z"/>
<path d="M3980 3666 c0 -2 8 -10 18 -17 15 -13 16 -12 3 4 -13 16 -21 21 -21 13z"/>
<path d="M2548 3433 c6 -2 18 -2 25 0 6 3 1 5 -13 5 -14 0 -19 -2 -12 -5z"/>
<path d="M2868 3433 c6 -2 18 -2 25 0 6 3 1 5 -13 5 -14 0 -19 -2 -12 -5z"/>
<path d="M2140 3215 c-24 -25 -42 -45 -39 -45 3 0 25 20 49 45 24 25 42 45 39 45 -3 0 -25 -20 -49 -45z"/>
<path d="M3290 3218 c41 -45 50 -53 50 -45 0 2 -21 23 -47 47 l-48 45 45 -47z"/>
<path d="M1131 3034 c0 -11 3 -14 6 -6 3 7 2 16 -1 19 -3 4 -6 -2 -5 -13z"/>
<path d="M4301 3034 c0 -11 3 -14 6 -6 3 7 2 16 -1 19 -3 4 -6 -2 -5 -13z"/>
<path d="M1112 2950 c0 -14 2 -19 5 -12 2 6 2 18 0 25 -3 6 -5 1 -5 -13z"/>
<path d="M4321 2944 c0 -11 3 -14 6 -6 3 7 2 16 -1 19 -3 4 -6 -2 -5 -13z"/>
<path d="M1092 2820 c0 -19 2 -27 5 -17 2 9 2 25 0 35 -3 9 -5 1 -5 -18z"/>
<path d="M1921 2834 c0 -11 3 -14 6 -6 3 7 2 16 -1 19 -3 4 -6 -2 -5 -13z"/>
<path d="M3511 2834 c0 -11 3 -14 6 -6 3 7 2 16 -1 19 -3 4 -6 -2 -5 -13z"/>
<path d="M4342 2820 c0 -19 2 -27 5 -17 2 9 2 25 0 35 -3 9 -5 1 -5 -18z"/>
<path d="M1903 2715 c0 -22 2 -30 4 -17 2 12 2 30 0 40 -3 9 -5 -1 -4 -23z"/>
<path d="M3533 2715 c0 -22 2 -30 4 -17 2 12 2 30 0 40 -3 9 -5 -1 -4 -23z"/>
<path d="M1082 2700 c0 -19 2 -27 5 -17 2 9 2 25 0 35 -3 9 -5 1 -5 -18z"/>
<path d="M4352 2700 c0 -19 2 -27 5 -17 2 9 2 25 0 35 -3 9 -5 1 -5 -18z"/>
<path d="M1082 2560 c0 -19 2 -27 5 -17 2 9 2 25 0 35 -3 9 -5 1 -5 -18z"/>
<path d="M4352 2560 c0 -19 2 -27 5 -17 2 9 2 25 0 35 -3 9 -5 1 -5 -18z"/>
<path d="M1903 2545 c0 -22 2 -30 4 -17 2 12 2 30 0 40 -3 9 -5 -1 -4 -23z"/>
<path d="M3533 2545 c0 -22 2 -30 4 -17 2 12 2 30 0 40 -3 9 -5 -1 -4 -23z"/>
<path d="M1092 2440 c0 -19 2 -27 5 -17 2 9 2 25 0 35 -3 9 -5 1 -5 -18z"/>
<path d="M4342 2440 c0 -19 2 -27 5 -17 2 9 2 25 0 35 -3 9 -5 1 -5 -18z"/>
<path d="M1921 2424 c0 -11 3 -14 6 -6 3 7 2 16 -1 19 -3 4 -6 -2 -5 -13z"/>
<path d="M3511 2424 c0 -11 3 -14 6 -6 3 7 2 16 -1 19 -3 4 -6 -2 -5 -13z"/>
<path d="M1111 2314 c0 -11 3 -14 6 -6 3 7 2 16 -1 19 -3 4 -6 -2 -5 -13z"/>
<path d="M4321 2314 c0 -11 3 -14 6 -6 3 7 2 16 -1 19 -3 4 -6 -2 -5 -13z"/>
<path d="M1131 2224 c0 -11 3 -14 6 -6 3 7 2 16 -1 19 -3 4 -6 -2 -5 -13z"/>
<path d="M4301 2224 c0 -11 3 -14 6 -6 3 7 2 16 -1 19 -3 4 -6 -2 -5 -13z"/>
<path d="M2140 2048 c41 -45 50 -53 50 -45 0 2 -21 23 -47 47 l-48 45 45 -47z"/>
<path d="M3290 2045 c-24 -25 -42 -45 -39 -45 3 0 25 20 49 45 24 25 42 45 39 45 -3 0 -25 -20 -49 -45z"/>
<path d="M2548 1823 c6 -2 18 -2 25 0 6 3 1 5 -13 5 -14 0 -19 -2 -12 -5z"/>
<path d="M2868 1823 c6 -2 18 -2 25 0 6 3 1 5 -13 5 -14 0 -19 -2 -12 -5z"/>
<path d="M1371 1684 c0 -11 3 -14 6 -6 3 7 2 16 -1 19 -3 4 -6 -2 -5 -13z"/>
<path d="M4061 1684 c0 -11 3 -14 6 -6 3 7 2 16 -1 19 -3 4 -6 -2 -5 -13z"/>
<path d="M1274 1528 l-19 -23 23 19 c21 18 27 26 19 26 -2 0 -12 -10 -23 -22z"/>
<path d="M4155 1530 c10 -11 20 -20 23 -20 3 0 -3 9 -13 20 -10 11 -20 20 -23 20 -3 0 3 -9 13 -20z"/>
<path d="M1232 1450 c0 -14 2 -19 5 -12 2 6 2 18 0 25 -3 6 -5 1 -5 -13z"/>
<path d="M4202 1450 c0 -14 2 -19 5 -12 2 6 2 18 0 25 -3 6 -5 1 -5 -13z"/>
<path d="M1234 1330 l1 -35 1485 0 1485 0 1 38 1 37 -4 -35 -4 -35 -1479 0 -1479 0 -4 33 c-4 32 -4 32 -3 -3z"/>
<path d="M246 867 c3 -10 9 -15 12 -12 3 3 0 11 -7 18 -10 9 -11 8 -5 -6z"/>
<path d="M5185 869 c-4 -6 -5 -12 -2 -15 2 -3 7 2 10 11 7 17 1 20 -8 4z"/>
<path d="M260 816 c0 -14 4 -27 8 -30 5 -3 6 8 4 25 -5 35 -12 38 -12 5z"/>
<path d="M5169 812 c-3 -20 -2 -29 4 -23 5 5 7 19 5 32 -3 20 -5 19 -9 -9z"/>
<path d="M729 327 c5 -5 19 -7 32 -5 20 3 19 5 -9 9 -20 3 -29 2 -23 -4z"/>
<path d="M4685 330 l-30 -8 27 -1 c15 0 30 4 33 9 3 6 5 9 3 9 -2 -1 -16 -5 -33 -9z"/>
<path d="M4625 310 c-3 -6 1 -7 9 -4 18 7 21 14 7 14 -6 0 -13 -4 -16 -10z"/>
</g>
</g>
  <g id="id11:id11" transform="matrix(1.25,0,0,1.25,0.0,0.0)"><g transform="translate(0.000000,217.600000) scale(0.040000,-0.040000)" fill="#8869cd" stroke="none">
<path d="M0 2720 l0 -2720 2720 0 2720 0 0 2720 0 2720 -2720 0 -2720 0 0 -2720z m4705 2542 c37 -15 108 -50 165 -83 86 -49 232 -207 268 -291 9 -21 20 -38 24 -38 5 0 8 -9 8 -20 0 -11 5 -20 10 -20 6 0 10 -9 10 -19 0 -11 6 -21 13 -23 18 -7 18 -3969 0 -3976 -7 -2 -13 -10 -13 -17 0 -19 -68 -146 -100 -188 -86 -112 -182 -188 -324 -258 l-101 -49 -1945 0 -1945 0 -101 49 c-142 70 -238 146 -324 258 -32 42 -100 169 -100 188 0 7 -6 15 -13 18 -18 6 -18 3968 1 3975 6 2 12 10 12 17 0 17 49 110 90 172 37 56 178 195 218 216 114 60 135 69 192 86 70 22 728 29 2305 24 1432 -5 1614 -7 1650 -21z"/>
</g>
</g>
  <g id="id12:id12" transform="matrix(1.25,0,0,1.25,0.0,0.0)"><g transform="translate(0.000000,217.600000) scale(0.040000,-0.040000)" fill="#8567cc" stroke="none">
<path d="M0 2720 l0 -2720 2720 0 2720 0 0 2720 0 2720 -2720 0 -2720 0 0 -2720z m4705 2542 c37 -15 108 -50 165 -83 86 -49 232 -207 268 -291 9 -21 20 -38 24 -38 5 0 8 -9 8 -20 0 -11 5 -20 10 -20 6 0 10 -9 10 -19 0 -11 6 -21 13 -23 18 -7 18 -3969 0 -3976 -7 -2 -13 -10 -13 -17 0 -19 -68 -146 -100 -188 -86 -112 -182 -188 -324 -258 l-101 -49 -1945 0 -1945 0 -101 49 c-142 70 -238 146 -324 258 -32 42 -100 169 -100 188 0 7 -6 15 -13 18 -18 6 -18 3968 1 3975 6 2 12 10 12 17 0 17 49 110 90 172 37 56 178 195 218 216 114 60 135 69 192 86 70 22 728 29 2305 24 1432 -5 1614 -7 1650 -21z"/>
</g>
</g>
  <g id="id13:id13" transform="matrix(1.25,0,0,1.25,0.0,0.0)"><g transform="translate(0.000000,217.600000) scale(0.040000,-0.040000)" fill="#8b6ece" stroke="none">
<path d="M0 2720 l0 -2720 2720 0 2720 0 0 2720 0 2720 -2720 0 -2720 0 0 -2720z m4705 2542 c37 -15 108 -50 165 -83 86 -49 232 -207 268 -291 9 -21 20 -38 24 -38 5 0 8 -9 8 -20 0 -11 5 -20 10 -20 6 0 10 -9 10 -19 0 -11 6 -21 13 -23 18 -7 18 -3969 0 -3976 -7 -2 -13 -10 -13 -17 0 -19 -68 -146 -100 -188 -86 -112 -182 -188 -324 -258 l-101 -49 -1945 0 -1945 0 -101 49 c-142 70 -238 146 -324 258 -32 42 -100 169 -100 188 0 7 -6 15 -13 18 -18 6 -18 3968 1 3975 6 2 12 10 12 17 0 17 49 110 90 172 37 56 178 195 218 216 114 60 135 69 192 86 70 22 728 29 2305 24 1432 -5 1614 -7 1650 -21z"/>
<path d="M790 5240 l-25 -8 27 -1 c15 -1 30 4 33 9 7 11 0 11 -35 0z"/>
<path d="M4628 5238 c5 -5 16 -8 23 -6 8 3 3 7 -10 11 -17 4 -21 3 -13 -5z"/>
<path d="M715 5220 c-16 -7 -17 -9 -3 -9 9 -1 20 4 23 9 7 11 7 11 -20 0z"/>
<path d="M4708 5218 c5 -5 16 -8 23 -6 8 3 3 7 -10 11 -17 4 -21 3 -13 -5z"/>
<path d="M670 5200 c-9 -6 -10 -10 -3 -10 6 0 15 5 18 10 8 12 4 12 -15 0z"/>
<path d="M4757 5199 c7 -7 15 -10 18 -7 3 3 -2 9 -12 12 -14 6 -15 5 -6 -5z"/>
<path d="M625 5180 c-3 -5 -1 -10 4 -10 6 0 11 5 11 10 0 6 -2 10 -4 10 -3 0 -8 -4 -11 -10z"/>
<path d="M4800 5180 c0 -5 5 -10 11 -10 5 0 7 5 4 10 -3 6 -8 10 -11 10 -2 0 -4 -4 -4 -10z"/>
<path d="M539 5129 l-24 -20 28 17 c15 9 27 18 27 20 0 8 -8 4 -31 -17z"/>
<path d="M4887 5131 c23 -22 39 -28 28 -11 -3 5 -16 15 -28 21 l-22 11 22 -21z"/>
<path d="M375 4970 c-3 -5 -1 -10 4 -10 6 0 11 5 11 10 0 6 -2 10 -4 10 -3 0 -8 -4 -11 -10z"/>
<path d="M315 4870 c-3 -5 -1 -10 4 -10 6 0 11 5 11 10 0 6 -2 10 -4 10 -3 0 -8 -4 -11 -10z"/>
<path d="M5110 4870 c0 -5 5 -10 11 -10 5 0 7 5 4 10 -3 6 -8 10 -11 10 -2 0 -4 -4 -4 -10z"/>
<path d="M297 4831 c-4 -17 -3 -21 5 -13 5 5 8 16 6 23 -3 8 -7 3 -11 -10z"/>
<path d="M5130 4831 c0 -6 4 -13 10 -16 6 -3 7 1 4 9 -7 18 -14 21 -14 7z"/>
<path d="M277 4781 c-4 -17 -3 -21 5 -13 5 5 8 16 6 23 -3 8 -7 3 -11 -10z"/>
<path d="M5150 4786 c0 -8 4 -17 9 -20 5 -4 7 3 4 14 -6 23 -13 26 -13 6z"/>
<path d="M257 4701 c-4 -17 -3 -21 5 -13 5 5 8 16 6 23 -3 8 -7 3 -11 -10z"/>
<path d="M5170 4706 c0 -8 4 -17 9 -20 5 -4 7 3 4 14 -6 23 -13 26 -13 6z"/>
<path d="M2538 4263 c12 -2 32 -2 45 0 12 2 2 4 -23 4 -25 0 -35 -2 -22 -4z"/>
<path d="M2858 4263 c12 -2 32 -2 45 0 12 2 2 4 -23 4 -25 0 -35 -2 -22 -4z"/>
<path d="M2408 4243 c6 -2 18 -2 25 0 6 3 1 5 -13 5 -14 0 -19 -2 -12 -5z"/>
<path d="M3008 4243 c6 -2 18 -2 25 0 6 3 1 5 -13 5 -14 0 -19 -2 -12 -5z"/>
<path d="M2306 4221 c-4 -5 3 -7 14 -4 23 6 26 13 6 13 -8 0 -17 -4 -20 -9z"/>
<path d="M3100 4226 c0 -2 9 -6 20 -9 11 -3 18 -1 14 4 -5 9 -34 13 -34 5z"/>
<path d="M2235 4200 c-3 -6 1 -7 9 -4 18 7 21 14 7 14 -6 0 -13 -4 -16 -10z"/>
<path d="M3180 4206 c0 -2 7 -7 16 -10 8 -3 12 -2 9 4 -6 10 -25 14 -25 6z"/>
<path d="M2175 4180 c-3 -6 1 -7 9 -4 18 7 21 14 7 14 -6 0 -13 -4 -16 -10z"/>
<path d="M3240 4186 c0 -2 7 -7 16 -10 8 -3 12 -2 9 4 -6 10 -25 14 -25 6z"/>
<path d="M2025 4120 c-3 -6 1 -7 9 -4 18 7 21 14 7 14 -6 0 -13 -4 -16 -10z"/>
<path d="M3390 4126 c0 -2 7 -7 16 -10 8 -3 12 -2 9 4 -6 10 -25 14 -25 6z"/>
<path d="M1985 4100 c-3 -6 1 -7 9 -4 18 7 21 14 7 14 -6 0 -13 -4 -16 -10z"/>
<path d="M3430 4106 c0 -2 7 -7 16 -10 8 -3 12 -2 9 4 -6 10 -25 14 -25 6z"/>
<path d="M1945 4080 c-3 -6 1 -7 9 -4 18 7 21 14 7 14 -6 0 -13 -4 -16 -10z"/>
<path d="M3470 4086 c0 -2 7 -7 16 -10 8 -3 12 -2 9 4 -6 10 -25 14 -25 6z"/>
<path d="M1649 3873 c-13 -16 -12 -17 4 -4 9 7 17 15 17 17 0 8 -8 3 -21 -13z"/>
<path d="M3770 3886 c0 -2 8 -10 18 -17 15 -13 16 -12 3 4 -13 16 -21 21 -21 13z"/>
<path d="M1464 3688 l-19 -23 23 19 c21 18 27 26 19 26 -2 0 -12 -10 -23 -22z"/>
<path d="M3965 3690 c10 -11 20 -20 23 -20 3 0 -3 9 -13 20 -10 11 -20 20 -23 20 -3 0 3 -9 13 -20z"/>
<path d="M2648 3443 c6 -2 18 -2 25 0 6 3 1 5 -13 5 -14 0 -19 -2 -12 -5z"/>
<path d="M2768 3443 c6 -2 18 -2 25 0 6 3 1 5 -13 5 -14 0 -19 -2 -12 -5z"/>
<path d="M2593 3433 c9 -2 23 -2 30 0 6 3 -1 5 -18 5 -16 0 -22 -2 -12 -5z"/>
<path d="M2823 3433 c9 -2 23 -2 30 0 6 3 -1 5 -18 5 -16 0 -22 -2 -12 -5z"/>
<path d="M2505 3420 c-16 -7 -17 -9 -3 -9 9 -1 20 4 23 9 7 11 7 11 -20 0z"/>
<path d="M2918 3418 c5 -5 16 -8 23 -6 8 3 3 7 -10 11 -17 4 -21 3 -13 -5z"/>
<path d="M1255 3379 c-4 -6 -5 -12 -2 -15 2 -3 7 2 10 11 7 17 1 20 -8 4z"/>
<path d="M2390 3380 c-9 -6 -10 -10 -3 -10 6 0 15 5 18 10 8 12 4 12 -15 0z"/>
<path d="M3037 3379 c7 -7 15 -10 18 -7 3 3 -2 9 -12 12 -14 6 -15 5 -6 -5z"/>
<path d="M4176 3377 c3 -10 9 -15 12 -12 3 3 0 11 -7 18 -10 9 -11 8 -5 -6z"/>
<path d="M1235 3339 c-4 -6 -5 -12 -2 -15 2 -3 7 2 10 11 7 17 1 20 -8 4z"/>
<path d="M4196 3337 c3 -10 9 -15 12 -12 3 3 0 11 -7 18 -10 9 -11 8 -5 -6z"/>
<path d="M1195 3249 c-4 -6 -5 -12 -2 -15 2 -3 7 2 10 11 7 17 1 20 -8 4z"/>
<path d="M4236 3247 c3 -10 9 -15 12 -12 3 3 0 11 -7 18 -10 9 -11 8 -5 -6z"/>
<path d="M1175 3199 c-4 -6 -5 -12 -2 -15 2 -3 7 2 10 11 7 17 1 20 -8 4z"/>
<path d="M4256 3197 c3 -10 9 -15 12 -12 3 3 0 11 -7 18 -10 9 -11 8 -5 -6z"/>
<path d="M1133 3075 c-3 -9 -3 -18 -1 -21 3 -3 8 4 11 16 6 23 -1 27 -10 5z"/>
<path d="M4297 3069 c4 -13 8 -18 11 -10 2 7 -1 18 -6 23 -8 8 -9 4 -5 -13z"/>
<path d="M1111 2984 c0 -11 3 -14 6 -6 3 7 2 16 -1 19 -3 4 -6 -2 -5 -13z"/>
<path d="M4322 2980 c0 -14 2 -19 5 -12 2 6 2 18 0 25 -3 6 -5 1 -5 -13z"/>
<path d="M1092 2875 c0 -16 2 -22 5 -12 2 9 2 23 0 30 -3 6 -5 -1 -5 -18z"/>
<path d="M4342 2875 c0 -16 2 -22 5 -12 2 9 2 23 0 30 -3 6 -5 -1 -5 -18z"/>
<path d="M1936 2873 c-6 -14 -5 -15 5 -6 7 7 10 15 7 18 -3 3 -9 -2 -12 -12z"/>
<path d="M3490 2881 c0 -6 4 -13 10 -16 6 -3 7 1 4 9 -7 18 -14 21 -14 7z"/>
<path d="M1921 2804 c0 -11 3 -14 6 -6 3 7 2 16 -1 19 -3 4 -6 -2 -5 -13z"/>
<path d="M3511 2804 c0 -11 3 -14 6 -6 3 7 2 16 -1 19 -3 4 -6 -2 -5 -13z"/>
<path d="M1082 2750 c0 -14 2 -19 5 -12 2 6 2 18 0 25 -3 6 -5 1 -5 -13z"/>
<path d="M4352 2750 c0 -14 2 -19 5 -12 2 6 2 18 0 25 -3 6 -5 1 -5 -13z"/>
<path d="M1073 2630 c0 -47 2 -66 4 -42 2 23 2 61 0 85 -2 23 -4 4 -4 -43z"/>
<path d="M4363 2630 c0 -47 2 -66 4 -42 2 23 2 61 0 85 -2 23 -4 4 -4 -43z"/>
<path d="M1903 2630 c0 -30 2 -43 4 -27 2 15 2 39 0 55 -2 15 -4 2 -4 -28z"/>
<path d="M3533 2630 c0 -30 2 -43 4 -27 2 15 2 39 0 55 -2 15 -4 2 -4 -28z"/>
<path d="M1082 2510 c0 -14 2 -19 5 -12 2 6 2 18 0 25 -3 6 -5 1 -5 -13z"/>
<path d="M4352 2510 c0 -14 2 -19 5 -12 2 6 2 18 0 25 -3 6 -5 1 -5 -13z"/>
<path d="M1921 2454 c0 -11 3 -14 6 -6 3 7 2 16 -1 19 -3 4 -6 -2 -5 -13z"/>
<path d="M3511 2454 c0 -11 3 -14 6 -6 3 7 2 16 -1 19 -3 4 -6 -2 -5 -13z"/>
<path d="M1092 2385 c0 -16 2 -22 5 -12 2 9 2 23 0 30 -3 6 -5 -1 -5 -18z"/>
<path d="M4342 2385 c0 -16 2 -22 5 -12 2 9 2 23 0 30 -3 6 -5 -1 -5 -18z"/>
<path d="M1936 2387 c3 -10 9 -15 12 -12 3 3 0 11 -7 18 -10 9 -11 8 -5 -6z"/>
<path d="M3495 2389 c-4 -6 -5 -12 -2 -15 2 -3 7 2 10 11 7 17 1 20 -8 4z"/>
<path d="M1110 2281 c0 -11 4 -22 9 -25 4 -3 6 6 3 19 -5 30 -12 33 -12 6z"/>
<path d="M4318 2277 c-3 -19 -2 -25 4 -19 6 6 8 18 6 28 -3 14 -5 12 -10 -9z"/>
<path d="M1130 2196 c0 -8 4 -17 9 -20 5 -4 7 3 4 14 -6 23 -13 26 -13 6z"/>
<path d="M4297 2191 c-4 -17 -3 -21 5 -13 5 5 8 16 6 23 -3 8 -7 3 -11 -10z"/>
<path d="M1170 2071 c0 -6 4 -13 10 -16 6 -3 7 1 4 9 -7 18 -14 21 -14 7z"/>
<path d="M4256 2063 c-6 -14 -5 -15 5 -6 7 7 10 15 7 18 -3 3 -9 -2 -12 -12z"/>
<path d="M1190 2021 c0 -6 4 -13 10 -16 6 -3 7 1 4 9 -7 18 -14 21 -14 7z"/>
<path d="M4236 2013 c-6 -14 -5 -15 5 -6 7 7 10 15 7 18 -3 3 -9 -2 -12 -12z"/>
<path d="M1230 1931 c0 -6 4 -13 10 -16 6 -3 7 1 4 9 -7 18 -14 21 -14 7z"/>
<path d="M4196 1923 c-6 -14 -5 -15 5 -6 7 7 10 15 7 18 -3 3 -9 -2 -12 -12z"/>
<path d="M1250 1891 c0 -6 4 -13 10 -16 6 -3 7 1 4 9 -7 18 -14 21 -14 7z"/>
<path d="M4176 1883 c-6 -14 -5 -15 5 -6 7 7 10 15 7 18 -3 3 -9 -2 -12 -12z"/>
<path d="M2380 1886 c0 -2 7 -7 16 -10 8 -3 12 -2 9 4 -6 10 -25 14 -25 6z"/>
<path d="M3035 1880 c-3 -6 1 -7 9 -4 18 7 21 14 7 14 -6 0 -13 -4 -16 -10z"/>
<path d="M2490 1846 c0 -2 9 -6 20 -9 11 -3 18 -1 14 4 -5 9 -34 13 -34 5z"/>
<path d="M2916 1841 c-4 -5 3 -7 14 -4 23 6 26 13 6 13 -8 0 -17 -4 -20 -9z"/>
<path d="M2593 1823 c9 -2 23 -2 30 0 6 3 -1 5 -18 5 -16 0 -22 -2 -12 -5z"/>
<path d="M2823 1823 c9 -2 23 -2 30 0 6 3 -1 5 -18 5 -16 0 -22 -2 -12 -5z"/>
<path d="M2648 1813 c6 -2 18 -2 25 0 6 3 1 5 -13 5 -14 0 -19 -2 -12 -5z"/>
<path d="M2768 1813 c6 -2 18 -2 25 0 6 3 1 5 -13 5 -14 0 -19 -2 -12 -5z"/>
<path d="M1309 1563 c-13 -16 -12 -17 4 -4 9 7 17 15 17 17 0 8 -8 3 -21 -13z"/>
<path d="M4110 1576 c0 -2 8 -10 18 -17 15 -13 16 -12 3 4 -13 16 -21 21 -21 13z"/>
<path d="M4191 1493 c7 -12 15 -20 18 -17 3 2 -3 12 -13 22 -17 16 -18 16 -5 -5z"/>
<path d="M1239 1383 c-13 -16 -12 -17 4 -4 9 7 17 15 17 17 0 8 -8 3 -21 -13z"/>
<path d="M4180 1396 c0 -2 8 -10 18 -17 15 -13 16 -12 3 4 -13 16 -21 21 -21 13z"/>
<path d="M1202 1330 c0 -14 2 -19 5 -12 2 6 2 18 0 25 -3 6 -5 1 -5 -13z"/>
<path d="M4232 1330 c0 -14 2 -19 5 -12 2 6 2 18 0 25 -3 6 -5 1 -5 -13z"/>
<path d="M1982 1263 c406 -2 1070 -2 1475 0 406 1 74 2 -737 2 -811 0 -1143 -1 -738 -2z"/>
<path d="M257 859 c4 -13 8 -18 11 -10 2 7 -1 18 -6 23 -8 8 -9 4 -5 -13z"/>
<path d="M5173 865 c-3 -9 -3 -18 -1 -21 3 -3 8 4 11 16 6 23 -1 27 -10 5z"/>
<path d="M277 779 c4 -13 8 -18 11 -10 2 7 -1 18 -6 23 -8 8 -9 4 -5 -13z"/>
<path d="M5153 785 c-3 -9 -3 -18 -1 -21 3 -3 8 4 11 16 6 23 -1 27 -10 5z"/>
<path d="M297 729 c4 -13 8 -18 11 -10 2 7 -1 18 -6 23 -8 8 -9 4 -5 -13z"/>
<path d="M5133 735 c-3 -9 -3 -18 -1 -21 3 -3 8 4 11 16 6 23 -1 27 -10 5z"/>
<path d="M315 690 c3 -5 8 -10 11 -10 2 0 4 5 4 10 0 6 -5 10 -11 10 -5 0 -7 -4 -4 -10z"/>
<path d="M5110 689 c0 -5 5 -7 10 -4 6 3 10 8 10 11 0 2 -4 4 -10 4 -5 0 -10 -5 -10 -11z"/>
<path d="M375 590 c3 -5 8 -10 11 -10 2 0 4 5 4 10 0 6 -5 10 -11 10 -5 0 -7 -4 -4 -10z"/>
<path d="M5050 589 c0 -5 5 -7 10 -4 6 3 10 8 10 11 0 2 -4 4 -10 4 -5 0 -10 -5 -10 -11z"/>
<path d="M580 406 c0 -2 7 -7 16 -10 8 -3 12 -2 9 4 -6 10 -25 14 -25 6z"/>
<path d="M4835 400 c-3 -6 1 -7 9 -4 18 7 21 14 7 14 -6 0 -13 -4 -16 -10z"/>
<path d="M625 380 c3 -5 8 -10 11 -10 2 0 4 5 4 10 0 6 -5 10 -11 10 -5 0 -7 -4 -4 -10z"/>
<path d="M4800 379 c0 -5 5 -7 10 -4 6 3 10 8 10 11 0 2 -4 4 -10 4 -5 0 -10 -5 -10 -11z"/>
<path d="M660 366 c0 -2 7 -7 16 -10 8 -3 12 -2 9 4 -6 10 -25 14 -25 6z"/>
<path d="M4755 360 c-3 -6 1 -7 9 -4 18 7 21 14 7 14 -6 0 -13 -4 -16 -10z"/>
<path d="M700 346 c0 -2 9 -6 20 -9 11 -3 18 -1 14 4 -5 9 -34 13 -34 5z"/>
<path d="M4706 341 c-4 -5 3 -7 14 -4 23 6 26 13 6 13 -8 0 -17 -4 -20 -9z"/>
<path d="M780 326 c0 -2 9 -6 20 -9 11 -3 18 -1 14 4 -5 9 -34 13 -34 5z"/>
<path d="M4626 321 c-4 -5 3 -7 14 -4 23 6 26 13 6 13 -8 0 -17 -4 -20 -9z"/>
</g>
</g>
  <g id="id14:id14" transform="matrix(1.25,0,0,1.25,0.0,0.0)"><g transform="translate(0.000000,217.600000) scale(0.040000,-0.040000)" fill="#8465cb" stroke="none">
<path d="M0 2720 l0 -2720 2720 0 2720 0 0 2720 0 2720 -2720 0 -2720 0 0 -2720z m4705 2542 c37 -15 108 -50 165 -83 86 -49 232 -207 268 -291 9 -21 20 -38 24 -38 5 0 8 -9 8 -20 0 -11 5 -20 10 -20 6 0 10 -9 10 -19 0 -11 6 -21 13 -23 18 -7 18 -3969 0 -3976 -7 -2 -13 -10 -13 -17 0 -19 -68 -146 -100 -188 -86 -112 -182 -188 -324 -258 l-101 -49 -1945 0 -1945 0 -101 49 c-142 70 -238 146 -324 258 -32 42 -100 169 -100 188 0 7 -6 15 -13 18 -18 6 -18 3968 1 3975 6 2 12 10 12 17 0 17 49 110 90 172 37 56 178 195 218 216 114 60 135 69 192 86 70 22 728 29 2305 24 1432 -5 1614 -7 1650 -21z"/>
<path d="M815 5234 c-11 -9 -32 -13 -48 -11 -18 2 -31 -1 -34 -10 -3 -7 -16 -13 -28 -13 -13 0 -27 -5 -30 -11 -4 -6 -13 -8 -20 -5 -7 2 -16 -2 -19 -11 -4 -8 -13 -13 -20 -10 -8 3 -17 -1 -20 -9 -3 -8 -12 -14 -21 -14 -8 0 -15 -4 -15 -10 0 -5 -3 -9 -7 -8 -12 2 -63 -24 -59 -31 4 -6 -24 -36 -34 -36 -3 0 -4 -3 -3 -7 2 -5 -1 -7 -6 -5 -5 1 -9 -2 -9 -6 -1 -5 -12 -18 -26 -31 -14 -12 -26 -27 -26 -34 0 -7 -5 -12 -11 -12 -5 0 -7 -4 -4 -10 3 -5 1 -10 -4 -10 -6 0 -11 -7 -11 -15 0 -9 -6 -18 -14 -21 -8 -3 -12 -12 -9 -20 3 -7 -2 -17 -11 -20 -9 -3 -13 -10 -10 -15 3 -5 2 -15 -2 -21 -5 -7 -9 -21 -10 -32 0 -11 -6 -22 -11 -23 -6 -2 -8 -13 -6 -24 4 -12 -3 -32 -16 -49 l-21 -29 0 -1891 0 -1891 21 -29 c13 -17 20 -37 16 -49 -2 -11 0 -22 6 -24 5 -1 11 -12 11 -23 1 -11 5 -25 10 -32 4 -6 5 -16 2 -21 -3 -5 1 -12 10 -15 9 -3 14 -13 11 -20 -3 -8 1 -17 9 -20 8 -3 14 -12 14 -21 0 -8 5 -15 11 -15 5 0 7 -5 4 -10 -3 -6 -1 -10 4 -10 6 0 11 -7 11 -15 0 -9 7 -18 15 -21 8 -4 12 -10 9 -15 -3 -5 2 -9 10 -9 9 0 15 -6 13 -12 -1 -7 4 -12 10 -11 7 2 12 -2 10 -9 -1 -6 9 -17 23 -25 14 -7 21 -13 15 -13 -12 -1 36 -28 49 -28 5 0 12 -4 15 -9 3 -5 23 -17 44 -26 20 -10 37 -22 37 -28 0 -6 5 -7 10 -4 6 4 17 1 25 -5 8 -6 19 -9 24 -6 5 4 16 0 23 -7 7 -8 21 -12 31 -9 10 3 31 -5 47 -17 l29 -21 1891 0 1891 0 29 21 c16 12 37 20 47 17 10 -3 24 1 31 9 7 7 18 11 23 7 5 -3 16 0 24 6 8 6 19 9 25 5 5 -3 10 -2 10 4 0 6 17 18 37 28 21 9 41 21 44 26 3 5 8 8 10 6 2 -1 18 5 34 14 17 9 26 16 20 17 -5 0 1 6 15 13 14 8 24 19 23 25 -2 7 3 11 10 9 6 -1 11 4 10 11 -2 6 4 12 13 12 8 0 13 4 10 9 -3 5 1 11 9 15 8 3 15 12 15 21 0 8 5 15 11 15 5 0 7 5 4 10 -3 6 -1 10 4 10 6 0 11 7 11 15 0 9 6 18 14 21 8 3 12 12 9 20 -3 7 2 17 11 20 9 3 13 10 10 15 -3 5 -2 15 2 21 5 7 9 21 10 32 0 11 6 22 11 23 6 2 8 13 6 24 -4 12 3 32 16 49 l21 29 0 1891 0 1891 -21 29 c-12 16 -20 37 -17 47 3 10 -1 24 -9 31 -7 7 -11 18 -7 23 3 5 0 16 -6 24 -6 8 -9 18 -6 24 3 5 -1 12 -10 15 -9 3 -14 13 -11 20 3 8 -1 17 -9 20 -8 3 -14 12 -14 21 0 8 -5 15 -11 15 -5 0 -8 4 -5 9 4 5 -9 24 -26 43 -18 18 -35 38 -38 43 -3 6 -8 9 -12 8 -5 -2 -7 2 -5 9 1 6 -8 17 -20 23 -13 7 -20 15 -17 18 4 3 -5 9 -20 13 -14 3 -26 10 -26 16 0 5 -4 6 -10 3 -6 -3 -10 -1 -10 4 0 6 -7 11 -15 11 -9 0 -18 6 -21 14 -3 8 -12 12 -20 9 -7 -3 -16 2 -20 10 -3 9 -12 13 -19 11 -7 -3 -16 -1 -19 4 -3 6 -15 8 -26 5 -12 -3 -22 1 -26 10 -3 9 -13 13 -25 10 -12 -4 -32 3 -49 16 l-29 21 -1888 0 c-1680 -1 -1890 -2 -1908 -16z m2108 -967 c22 -10 36 -13 32 -8 -12 20 52 16 75 -4 9 -8 27 -11 43 -8 21 4 35 -1 54 -18 14 -13 23 -18 19 -11 -13 22 35 13 56 -10 11 -13 17 -17 13 -10 -11 21 26 13 47 -10 11 -13 17 -17 13 -10 -4 7 1 12 13 12 12 0 22 -9 26 -22 5 -19 8 -21 16 -8 9 13 13 11 29 -9 14 -18 20 -21 24 -10 5 12 8 11 19 -2 7 -9 19 -14 25 -12 7 3 16 -2 19 -11 3 -8 12 -12 20 -9 7 3 16 -2 20 -10 3 -9 11 -14 19 -11 7 3 15 -5 19 -18 5 -19 8 -20 15 -8 9 12 11 12 16 -2 4 -9 13 -14 21 -11 8 3 14 -1 14 -11 0 -10 6 -13 15 -10 10 4 15 0 15 -12 0 -15 2 -16 9 -5 7 11 10 9 16 -8 3 -12 11 -19 16 -16 5 4 12 -1 15 -10 6 -13 8 -14 15 -3 7 10 9 10 10 1 1 -7 3 -17 4 -23 1 -5 3 -13 4 -17 1 -5 6 -1 11 7 8 13 10 12 10 -3 0 -10 4 -16 9 -12 5 3 12 1 16 -5 4 -6 11 -8 16 -5 5 4 9 -1 9 -10 0 -10 5 -13 12 -9 7 4 8 3 4 -4 -7 -12 140 -169 155 -165 5 2 9 -4 9 -12 0 -8 9 -15 21 -15 11 0 17 -4 14 -10 -3 -5 -1 -10 4 -10 6 0 11 -5 11 -11 0 -5 -5 -7 -12 -3 -7 4 -8 3 -4 -4 4 -7 14 -12 22 -12 8 0 12 -4 9 -10 -3 -5 -1 -10 4 -10 6 0 11 -7 11 -15 0 -8 7 -15 15 -15 8 0 15 -7 15 -15 0 -8 6 -15 13 -15 8 0 7 -4 -3 -10 -14 -9 -7 -14 13 -11 5 1 11 -8 14 -19 3 -11 10 -20 17 -20 6 0 4 -5 -4 -10 -12 -8 -11 -11 8 -16 14 -4 21 -12 18 -20 -3 -8 1 -14 9 -14 8 0 15 -9 15 -20 0 -11 5 -20 11 -20 6 0 8 -7 5 -15 -3 -9 1 -18 10 -22 8 -3 13 -12 10 -19 -3 -7 3 -18 12 -24 14 -8 15 -11 3 -19 -11 -7 -9 -10 9 -16 15 -5 20 -13 17 -25 -3 -11 2 -21 10 -24 10 -4 13 -14 10 -27 -3 -12 0 -22 9 -26 17 -6 19 -33 2 -33 -7 -1 -3 -9 10 -19 23 -20 32 -58 10 -45 -7 4 -3 -4 10 -18 24 -26 29 -58 10 -58 -6 0 -2 -10 10 -23 23 -25 32 -84 10 -71 -7 4 -2 -9 10 -30 22 -36 32 -134 13 -122 -4 3 -5 -13 0 -37 10 -54 10 -160 0 -214 -5 -24 -4 -40 0 -37 15 9 9 -90 -6 -109 -8 -12 -11 -31 -8 -53 5 -27 1 -40 -17 -59 -13 -14 -18 -25 -12 -25 19 0 14 -32 -10 -58 -13 -14 -17 -22 -10 -18 22 13 13 -25 -10 -45 -13 -10 -17 -18 -10 -19 17 0 15 -27 -2 -33 -9 -4 -12 -14 -9 -26 3 -13 0 -23 -10 -27 -8 -3 -13 -13 -10 -24 3 -12 -2 -20 -17 -25 -18 -6 -20 -9 -9 -16 12 -8 11 -11 -3 -19 -9 -6 -15 -17 -12 -24 3 -7 -2 -16 -10 -19 -9 -4 -13 -13 -10 -22 3 -8 1 -15 -5 -15 -6 0 -11 -9 -11 -20 0 -11 -7 -20 -15 -20 -8 0 -12 -6 -9 -14 3 -8 -4 -16 -18 -20 -19 -5 -20 -8 -8 -16 8 -5 10 -10 4 -10 -7 0 -14 -9 -17 -21 -3 -12 -10 -18 -16 -15 -5 4 -12 2 -16 -4 -3 -5 -1 -10 4 -10 6 0 11 -9 11 -21 0 -12 -4 -17 -11 -13 -8 5 -8 1 0 -14 6 -11 18 -22 26 -26 9 -3 13 -10 10 -16 -4 -6 -12 -7 -18 -4 -7 4 -8 3 -4 -2 5 -5 14 -9 20 -9 7 0 12 -7 12 -15 1 -8 6 -14 13 -12 7 1 11 -3 10 -10 -2 -7 4 -12 12 -13 8 0 15 -5 15 -12 0 -6 12 -23 28 -37 33 -31 36 -72 6 -81 -17 -6 -19 -9 -8 -16 8 -5 11 -9 7 -9 -5 0 1 -9 12 -20 27 -27 25 -46 -9 -81 l-29 -29 -1462 0 -1462 0 -29 29 c-34 35 -36 54 -9 81 11 11 17 20 13 20 -5 0 -2 4 6 9 11 7 9 10 -8 16 -29 9 -30 60 0 68 12 3 18 10 15 15 -3 6 1 13 9 16 8 3 14 11 13 18 -2 7 4 12 12 13 8 1 14 6 12 13 -1 7 4 11 10 10 7 -2 12 3 10 9 -1 7 4 13 12 13 8 0 18 5 22 12 4 6 3 8 -4 4 -6 -3 -13 -2 -17 3 -3 6 3 15 14 21 16 8 19 17 14 40 -3 20 -1 30 6 30 7 0 9 5 6 10 -4 6 -11 8 -16 4 -6 -3 -13 3 -16 15 -3 12 -10 21 -17 21 -6 0 -4 5 4 10 12 8 11 11 -8 16 -14 4 -21 12 -18 20 3 8 -1 14 -9 14 -8 0 -15 9 -15 20 0 11 -5 20 -11 20 -6 0 -8 7 -5 15 3 9 -1 18 -10 22 -8 3 -13 12 -10 19 3 7 -3 18 -12 24 -14 8 -15 11 -3 19 11 7 9 10 -9 16 -15 5 -20 13 -17 25 3 11 -2 21 -10 24 -10 4 -13 14 -10 27 3 12 0 22 -9 26 -17 6 -19 33 -1 33 6 1 2 9 -10 19 -24 20 -33 58 -10 45 6 -4 2 4 -10 18 -25 26 -30 58 -11 58 6 0 2 10 -10 23 -23 25 -32 84 -10 71 7 -4 2 9 -10 30 -22 36 -32 134 -13 122 4 -3 5 13 0 37 -10 54 -10 160 0 214 5 24 4 40 0 37 -19 -12 -9 86 13 122 12 21 17 34 10 30 -22 -13 -13 46 10 71 12 13 16 23 10 23 -19 0 -14 32 11 58 12 14 16 22 10 18 -23 -13 -14 25 9 45 13 10 17 18 11 19 -18 0 -16 27 1 33 9 4 12 14 9 26 -3 13 0 23 10 27 8 3 13 13 10 24 -3 12 2 20 17 25 18 6 20 9 9 16 -12 8 -11 11 3 19 9 6 15 17 12 24 -3 7 2 16 10 19 9 4 13 13 10 22 -3 8 -1 15 5 15 6 0 11 9 11 20 0 11 7 20 15 20 8 0 12 6 9 14 -3 8 4 16 18 20 19 5 20 8 8 16 -8 5 -10 10 -4 10 7 0 14 9 17 20 3 11 9 20 14 19 20 -3 27 2 13 11 -10 6 -11 10 -2 10 6 0 12 7 12 15 0 8 7 15 15 15 8 0 15 7 15 15 0 8 5 15 11 15 5 0 7 5 4 10 -3 6 1 10 9 10 8 0 18 5 22 12 4 7 3 8 -4 4 -7 -4 -12 -2 -12 3 0 6 5 11 11 11 5 0 7 5 4 10 -3 6 3 10 14 10 12 0 21 7 21 15 0 8 4 14 9 12 15 -4 162 153 155 165 -4 7 -3 8 4 4 7 -4 12 -1 12 9 0 9 4 14 9 10 5 -3 12 -1 16 5 4 6 11 8 16 5 5 -4 9 2 9 12 0 15 2 16 10 3 5 -8 10 -12 11 -7 1 4 3 12 4 17 1 6 3 16 4 23 1 9 3 9 10 -1 7 -11 9 -10 15 3 3 9 10 14 15 10 5 -3 13 4 16 16 6 17 9 19 16 8 7 -11 9 -10 9 5 0 12 5 16 15 12 9 -3 15 0 15 10 0 10 6 14 14 11 8 -3 17 2 21 11 5 14 7 14 16 2 7 -12 10 -11 15 8 4 13 12 21 19 18 8 -3 16 2 19 11 4 8 13 13 20 10 8 -3 17 1 20 9 3 9 12 14 19 11 6 -2 18 3 25 12 11 13 14 14 19 2 4 -11 10 -8 24 10 16 20 20 22 29 9 8 -13 11 -11 16 8 4 13 14 22 26 22 12 0 17 -5 13 -12 -4 -7 2 -3 13 10 21 23 58 31 47 10 -4 -7 2 -3 13 10 21 23 69 32 56 10 -4 -7 5 -2 19 11 19 17 33 22 54 18 16 -3 34 0 43 8 23 20 87 24 75 4 -6 -9 62 15 74 27 3 3 77 4 166 2 128 -3 168 -7 198 -21z"/>
<path d="M2652 3440 c-19 -4 -39 -13 -45 -19 -15 -15 -67 -14 -67 1 0 6 -10 2 -23 -10 -25 -24 -63 -31 -52 -9 4 6 -2 1 -13 -12 -13 -16 -25 -22 -36 -18 -10 4 -19 1 -22 -8 -4 -8 -15 -15 -25 -15 -10 0 -19 -4 -19 -10 0 -5 -7 -10 -16 -10 -9 0 -23 -8 -31 -17 -8 -10 -12 -12 -8 -5 3 6 1 12 -4 12 -6 0 -11 -7 -11 -16 0 -10 -6 -14 -15 -10 -8 3 -15 1 -15 -5 0 -6 -4 -8 -9 -4 -5 3 -12 1 -16 -5 -3 -5 -1 -10 5 -10 7 0 6 -5 -2 -14 -7 -7 -20 -12 -28 -11 -24 4 -109 -84 -104 -108 2 -11 1 -17 -2 -14 -8 8 -33 -16 -27 -25 2 -5 -1 -8 -7 -8 -7 0 -10 -7 -7 -14 4 -9 -2 -17 -13 -21 -10 -3 -17 -12 -14 -19 3 -8 -4 -16 -18 -20 -14 -5 -18 -9 -10 -13 17 -7 15 -23 -4 -23 -11 0 -14 -5 -10 -17 5 -11 -1 -24 -16 -36 -13 -10 -17 -16 -10 -12 21 11 13 -26 -10 -46 -13 -10 -17 -18 -10 -19 18 0 14 -29 -9 -58 -12 -16 -16 -28 -10 -30 15 -5 15 -259 0 -264 -6 -2 -2 -14 10 -30 23 -29 29 -73 9 -63 -7 4 -3 -2 10 -13 23 -21 31 -58 10 -47 -7 4 -3 -2 10 -12 15 -12 21 -25 16 -36 -4 -12 -1 -17 10 -17 19 0 21 -16 4 -23 -8 -4 -4 -8 10 -13 14 -4 21 -12 18 -20 -3 -7 4 -16 14 -19 11 -4 17 -12 13 -21 -3 -7 0 -14 7 -14 6 0 9 -3 7 -7 -6 -10 19 -34 26 -26 3 2 4 -3 2 -14 -4 -23 82 -112 104 -108 9 1 22 -3 29 -11 8 -9 9 -14 2 -14 -6 0 -8 -5 -5 -10 4 -6 11 -8 16 -5 5 4 9 2 9 -4 0 -6 7 -8 15 -5 9 4 15 0 15 -10 0 -9 5 -16 11 -16 5 0 7 6 4 13 -4 6 0 4 8 -5 8 -10 22 -18 31 -18 9 0 16 -4 16 -10 0 -5 9 -10 19 -10 10 0 21 -7 25 -15 3 -9 12 -12 22 -8 11 4 23 -2 36 -18 11 -13 17 -18 13 -11 -11 21 27 14 52 -10 13 -12 23 -16 23 -10 0 16 46 15 73 -2 28 -17 90 -29 82 -16 -4 6 7 10 25 10 18 0 29 -4 25 -10 -8 -13 54 -1 82 16 27 17 73 18 73 2 0 -6 10 -2 23 10 25 24 63 31 52 10 -4 -7 2 -2 13 11 13 16 25 22 36 18 10 -4 19 -1 22 8 4 8 15 15 25 15 10 0 19 5 19 10 0 6 7 10 16 10 9 0 23 8 31 18 8 9 12 11 8 5 -3 -7 -1 -13 4 -13 6 0 11 7 11 16 0 10 6 14 15 10 8 -3 15 -1 15 5 0 6 4 8 9 4 5 -3 12 -1 16 5 3 5 1 10 -5 10 -7 0 -6 5 2 14 7 8 20 12 29 11 22 -4 108 85 104 108 -2 11 -1 16 2 14 7 -8 32 16 26 26 -2 4 1 7 7 7 7 0 10 7 7 14 -4 9 2 17 13 21 10 3 17 12 14 19 -3 8 4 16 18 20 14 5 18 9 11 13 -18 7 -16 23 3 23 11 0 14 5 10 17 -5 11 1 24 16 36 13 10 17 16 11 12 -22 -11 -14 26 10 47 12 11 16 17 10 13 -21 -10 -15 34 8 63 12 16 16 28 10 30 -15 5 -15 259 0 264 6 2 2 14 -10 30 -23 29 -27 58 -8 58 6 1 2 9 -10 19 -24 20 -32 57 -10 46 6 -4 2 2 -11 12 -15 12 -21 25 -16 36 4 12 1 17 -10 17 -19 0 -21 16 -3 23 7 4 3 8 -11 13 -14 4 -21 12 -18 20 3 7 -4 16 -14 19 -11 4 -17 12 -13 21 3 7 -1 14 -8 14 -7 0 -10 3 -6 6 7 8 -16 33 -25 28 -4 -3 -5 4 -3 14 4 23 -82 111 -105 107 -8 -1 -21 4 -28 11 -8 9 -9 14 -2 14 6 0 8 5 5 10 -4 6 -11 8 -16 5 -5 -4 -9 -2 -9 4 0 6 -7 8 -15 5 -9 -4 -15 0 -15 10 0 9 -5 16 -11 16 -5 0 -7 -6 -4 -12 4 -7 0 -5 -8 5 -8 9 -22 17 -31 17 -9 0 -16 5 -16 10 0 6 -9 10 -19 10 -10 0 -21 7 -25 15 -3 9 -12 12 -22 8 -11 -4 -23 2 -36 18 -11 13 -17 18 -13 12 11 -22 -27 -15 -52 9 -13 12 -23 16 -23 10 0 -16 -46 -15 -73 2 -28 17 -90 29 -82 16 4 -6 -7 -10 -25 -10 -18 0 -29 4 -25 10 7 11 4 11 -43 0z m-456 -212 c4 -6 3 -8 -3 -5 -13 8 -66 -47 -56 -57 5 -4 1 -6 -7 -4 -8 2 -14 -3 -12 -10 1 -8 -2 -11 -9 -7 -7 5 5 23 32 51 49 50 45 48 55 32z m1144 -74 c0 -2 -5 -6 -10 -9 -6 -4 -9 -1 -8 7 2 7 -3 12 -10 10 -8 -1 -11 1 -8 6 7 12 -48 64 -59 55 -4 -5 -5 -2 0 5 5 10 18 3 51 -29 24 -24 44 -44 44 -45z m-1222 -1046 c-2 -7 4 -11 12 -10 8 2 12 0 7 -4 -10 -10 43 -65 56 -57 6 4 7 1 2 -6 -5 -9 -20 -1 -51 30 -24 23 -41 46 -38 51 8 12 14 10 12 -4z m1181 -44 c-24 -24 -44 -44 -45 -44 -2 0 -6 6 -10 13 -4 6 -3 9 1 4 11 -9 66 43 59 55 -3 5 0 7 8 6 7 -2 12 3 10 10 -1 8 2 11 9 7 7 -5 -5 -23 -32 -51z"/>
</g>
</g>
  <g id="id15:id15" transform="matrix(1.25,0,0,1.25,0.0,0.0)"><g transform="translate(0.000000,217.600000) scale(0.040000,-0.040000)" fill="#7d5cc8" stroke="none">
<path d="M0 2720 l0 -2720 2720 0 2720 0 0 2720 0 2720 -2720 0 -2720 0 0 -2720z m4705 2542 c37 -15 108 -50 165 -83 86 -49 232 -207 268 -291 9 -21 20 -38 24 -38 5 0 8 -9 8 -20 0 -11 5 -20 10 -20 6 0 10 -9 10 -19 0 -11 6 -21 13 -23 18 -7 18 -3969 0 -3976 -7 -2 -13 -10 -13 -17 0 -19 -68 -146 -100 -188 -86 -112 -182 -188 -324 -258 l-101 -49 -1945 0 -1945 0 -101 49 c-142 70 -238 146 -324 258 -32 42 -100 169 -100 188 0 7 -6 15 -13 18 -18 6 -18 3968 1 3975 6 2 12 10 12 17 0 17 49 110 90 172 37 56 178 195 218 216 114 60 135 69 192 86 70 22 728 29 2305 24 1432 -5 1614 -7 1650 -21z"/>
<path d="M763 5223 c9 -2 23 -2 30 0 6 3 -1 5 -18 5 -16 0 -22 -2 -12 -5z"/>
<path d="M4650 5220 c20 -13 50 -13 50 0 0 6 -15 10 -32 10 -25 0 -29 -3 -18 -10z"/>
<path d="M698 5203 c6 -2 18 -2 25 0 6 3 1 5 -13 5 -14 0 -19 -2 -12 -5z"/>
<path d="M4715 5200 c3 -5 13 -10 21 -10 8 0 14 5 14 10 0 6 -9 10 -21 10 -11 0 -17 -4 -14 -10z"/>
<path d="M290 4788 c0 -19 2 -20 10 -8 13 19 13 30 0 30 -5 0 -10 -10 -10 -22z"/>
<path d="M5136 4802 c-2 -4 -1 -14 5 -22 7 -12 9 -10 9 8 0 23 -5 28 -14 14z"/>
<path d="M270 4728 c0 -25 3 -29 10 -18 13 20 13 50 0 50 -5 0 -10 -15 -10 -32z"/>
<path d="M5150 4743 c0 -10 5 -25 10 -33 7 -11 10 -7 10 18 0 17 -4 32 -10 32 -5 0 -10 -8 -10 -17z"/>
<path d="M2550 4280 c-10 -6 47 -10 170 -10 123 0 180 4 170 10 -8 5 -85 10 -170 10 -85 0 -162 -5 -170 -10z"/>
<path d="M2415 4260 c-4 -6 8 -10 29 -10 19 0 38 5 41 10 4 6 -8 10 -29 10 -19 0 -38 -4 -41 -10z"/>
<path d="M2955 4260 c3 -5 22 -10 41 -10 21 0 33 4 29 10 -3 6 -22 10 -41 10 -21 0 -33 -4 -29 -10z"/>
<path d="M2325 4240 c-4 -6 7 -10 24 -10 17 0 31 5 31 10 0 6 -11 10 -24 10 -14 0 -28 -4 -31 -10z"/>
<path d="M3060 4240 c0 -5 14 -10 31 -10 17 0 28 4 24 10 -3 6 -17 10 -31 10 -13 0 -24 -4 -24 -10z"/>
<path d="M2250 4220 c0 -5 9 -10 19 -10 11 0 23 5 26 10 4 6 -5 10 -19 10 -14 0 -26 -4 -26 -10z"/>
<path d="M3145 4220 c3 -5 15 -10 26 -10 10 0 19 5 19 10 0 6 -12 10 -26 10 -14 0 -23 -4 -19 -10z"/>
<path d="M2190 4200 c0 -5 6 -10 14 -10 8 0 18 5 21 10 3 6 -3 10 -14 10 -12 0 -21 -4 -21 -10z"/>
<path d="M3215 4200 c3 -5 13 -10 21 -10 8 0 14 5 14 10 0 6 -9 10 -21 10 -11 0 -17 -4 -14 -10z"/>
<path d="M2130 4180 c0 -5 6 -10 14 -10 8 0 18 5 21 10 3 6 -3 10 -14 10 -12 0 -21 -4 -21 -10z"/>
<path d="M3275 4180 c3 -5 13 -10 21 -10 8 0 14 5 14 10 0 6 -9 10 -21 10 -11 0 -17 -4 -14 -10z"/>
<path d="M2085 4160 c-3 -5 1 -10 9 -10 9 0 16 5 16 10 0 6 -4 10 -9 10 -6 0 -13 -4 -16 -10z"/>
<path d="M3330 4160 c0 -5 7 -10 16 -10 8 0 12 5 9 10 -3 6 -10 10 -16 10 -5 0 -9 -4 -9 -10z"/>
<path d="M2035 4140 c-3 -5 1 -10 9 -10 9 0 16 5 16 10 0 6 -4 10 -9 10 -6 0 -13 -4 -16 -10z"/>
<path d="M3380 4140 c0 -5 7 -10 16 -10 8 0 12 5 9 10 -3 6 -10 10 -16 10 -5 0 -9 -4 -9 -10z"/>
<path d="M1995 4120 c-3 -5 1 -10 9 -10 9 0 16 5 16 10 0 6 -4 10 -9 10 -6 0 -13 -4 -16 -10z"/>
<path d="M3420 4120 c0 -5 7 -10 16 -10 8 0 12 5 9 10 -3 6 -10 10 -16 10 -5 0 -9 -4 -9 -10z"/>
<path d="M1955 4100 c-3 -5 1 -10 9 -10 9 0 16 5 16 10 0 6 -4 10 -9 10 -6 0 -13 -4 -16 -10z"/>
<path d="M3460 4100 c0 -5 7 -10 16 -10 8 0 12 5 9 10 -3 6 -10 10 -16 10 -5 0 -9 -4 -9 -10z"/>
<path d="M1920 4080 c0 -5 5 -10 10 -10 6 0 10 5 10 10 0 6 -4 10 -10 10 -5 0 -10 -4 -10 -10z"/>
<path d="M3500 4080 c0 -5 5 -10 10 -10 6 0 10 5 10 10 0 6 -4 10 -10 10 -5 0 -10 -4 -10 -10z"/>
<path d="M1885 4060 c-3 -5 -1 -10 4 -10 6 0 11 5 11 10 0 6 -2 10 -4 10 -3 0 -8 -4 -11 -10z"/>
<path d="M3540 4060 c0 -5 5 -10 11 -10 5 0 7 5 4 10 -3 6 -8 10 -11 10 -2 0 -4 -4 -4 -10z"/>
<path d="M1850 4040 c0 -5 5 -10 10 -10 6 0 10 5 10 10 0 6 -4 10 -10 10 -5 0 -10 -4 -10 -10z"/>
<path d="M3570 4040 c0 -5 5 -10 10 -10 6 0 10 5 10 10 0 6 -4 10 -10 10 -5 0 -10 -4 -10 -10z"/>
<path d="M1820 4020 c0 -5 5 -10 10 -10 6 0 10 5 10 10 0 6 -4 10 -10 10 -5 0 -10 -4 -10 -10z"/>
<path d="M3600 4020 c0 -5 5 -10 10 -10 6 0 10 5 10 10 0 6 -4 10 -10 10 -5 0 -10 -4 -10 -10z"/>
<path d="M1795 4000 c-3 -5 -1 -10 4 -10 6 0 11 5 11 10 0 6 -2 10 -4 10 -3 0 -8 -4 -11 -10z"/>
<path d="M3630 4000 c0 -5 5 -10 11 -10 5 0 7 5 4 10 -3 6 -8 10 -11 10 -2 0 -4 -4 -4 -10z"/>
<path d="M1765 3980 c-3 -5 -1 -10 4 -10 6 0 11 5 11 10 0 6 -2 10 -4 10 -3 0 -8 -4 -11 -10z"/>
<path d="M3660 3980 c0 -5 5 -10 11 -10 5 0 7 5 4 10 -3 6 -8 10 -11 10 -2 0 -4 -4 -4 -10z"/>
<path d="M1735 3960 c-3 -5 -1 -10 4 -10 6 0 11 5 11 10 0 6 -2 10 -4 10 -3 0 -8 -4 -11 -10z"/>
<path d="M3690 3960 c0 -5 5 -10 11 -10 5 0 7 5 4 10 -3 6 -8 10 -11 10 -2 0 -4 -4 -4 -10z"/>
<path d="M1680 3917 c-8 -7 -22 -21 -30 -32 -11 -15 -7 -14 15 5 17 14 32 26 34 28 2 1 2 4 0 6 -2 2 -11 -1 -19 -7z"/>
<path d="M3741 3923 c0 -5 14 -19 31 -32 26 -21 29 -22 18 -4 -14 22 -50 48 -49 36z"/>
<path d="M1441 3684 c-7 -8 -11 -17 -9 -20 3 -2 13 5 23 16 10 11 14 20 9 20 -5 -1 -15 -8 -23 -16z"/>
<path d="M3985 3680 c10 -11 20 -18 23 -16 5 6 -23 36 -34 36 -4 0 1 -9 11 -20z"/>
<path d="M1370 3589 c0 -5 5 -7 10 -4 6 3 10 8 10 11 0 2 -4 4 -10 4 -5 0 -10 -5 -10 -11z"/>
<path d="M4055 3590 c3 -5 8 -10 11 -10 2 0 4 5 4 10 0 6 -5 10 -11 10 -5 0 -7 -4 -4 -10z"/>
<path d="M1337 3543 c-4 -3 -7 -11 -7 -17 0 -6 5 -5 12 2 6 6 9 14 7 17 -3 3 -9 2 -12 -2z"/>
<path d="M4090 3541 c0 -5 5 -13 10 -16 6 -3 10 -2 10 4 0 5 -4 13 -10 16 -5 3 -10 2 -10 -4z"/>
<path d="M1290 3470 c0 -5 5 -10 10 -10 6 0 10 5 10 10 0 6 -4 10 -10 10 -5 0 -10 -4 -10 -10z"/>
<path d="M4130 3470 c0 -5 5 -10 10 -10 6 0 10 5 10 10 0 6 -4 10 -10 10 -5 0 -10 -4 -10 -10z"/>
<path d="M1270 3434 c0 -8 5 -12 10 -9 6 3 10 10 10 16 0 5 -4 9 -10 9 -5 0 -10 -7 -10 -16z"/>
<path d="M2695 3440 c-4 -6 7 -10 25 -10 18 0 29 4 25 10 -3 6 -15 10 -25 10 -10 0 -22 -4 -25 -10z"/>
<path d="M4150 3441 c0 -6 5 -13 10 -16 6 -3 10 1 10 9 0 9 -4 16 -10 16 -5 0 -10 -4 -10 -9z"/>
<path d="M2540 3420 c0 -5 13 -10 29 -10 17 0 33 5 36 10 4 6 -8 10 -29 10 -20 0 -36 -4 -36 -10z"/>
<path d="M2835 3420 c3 -5 19 -10 36 -10 16 0 29 5 29 10 0 6 -16 10 -36 10 -21 0 -33 -4 -29 -10z"/>
<path d="M1250 3400 c0 -5 5 -10 10 -10 6 0 10 5 10 10 0 6 -4 10 -10 10 -5 0 -10 -4 -10 -10z"/>
<path d="M2465 3400 c-3 -5 3 -10 14 -10 11 0 23 5 26 10 3 6 -3 10 -14 10 -11 0 -23 -4 -26 -10z"/>
<path d="M2935 3400 c3 -5 15 -10 26 -10 11 0 17 5 14 10 -3 6 -15 10 -26 10 -11 0 -17 -4 -14 -10z"/>
<path d="M4170 3400 c0 -5 5 -10 10 -10 6 0 10 5 10 10 0 6 -4 10 -10 10 -5 0 -10 -4 -10 -10z"/>
<path d="M2410 3380 c0 -5 6 -10 14 -10 8 0 18 5 21 10 3 6 -3 10 -14 10 -12 0 -21 -4 -21 -10z"/>
<path d="M2995 3380 c3 -5 13 -10 21 -10 8 0 14 5 14 10 0 6 -9 10 -21 10 -11 0 -17 -4 -14 -10z"/>
<path d="M1230 3360 c0 -5 5 -10 10 -10 6 0 10 5 10 10 0 6 -4 10 -10 10 -5 0 -10 -4 -10 -10z"/>
<path d="M2365 3360 c-3 -5 1 -10 9 -10 9 0 16 5 16 10 0 6 -4 10 -9 10 -6 0 -13 -4 -16 -10z"/>
<path d="M3050 3360 c0 -5 7 -10 16 -10 8 0 12 5 9 10 -3 6 -10 10 -16 10 -5 0 -9 -4 -9 -10z"/>
<path d="M4190 3360 c0 -5 5 -10 10 -10 6 0 10 5 10 10 0 6 -4 10 -10 10 -5 0 -10 -4 -10 -10z"/>
<path d="M2325 3340 c-3 -5 1 -10 9 -10 9 0 16 5 16 10 0 6 -4 10 -9 10 -6 0 -13 -4 -16 -10z"/>
<path d="M3090 3340 c0 -5 7 -10 16 -10 8 0 12 5 9 10 -3 6 -10 10 -16 10 -5 0 -9 -4 -9 -10z"/>
<path d="M1210 3320 c0 -5 5 -10 10 -10 6 0 10 5 10 10 0 6 -4 10 -10 10 -5 0 -10 -4 -10 -10z"/>
<path d="M2295 3320 c3 -5 8 -10 11 -10 2 0 4 5 4 10 0 6 -5 10 -11 10 -5 0 -7 -4 -4 -10z"/>
<path d="M3130 3319 c0 -5 5 -7 10 -4 6 3 10 8 10 11 0 2 -4 4 -10 4 -5 0 -10 -5 -10 -11z"/>
<path d="M4210 3320 c0 -5 5 -10 10 -10 6 0 10 5 10 10 0 6 -4 10 -10 10 -5 0 -10 -4 -10 -10z"/>
<path d="M2260 3300 c0 -5 5 -10 10 -10 6 0 10 5 10 10 0 6 -4 10 -10 10 -5 0 -10 -4 -10 -10z"/>
<path d="M3160 3300 c0 -5 5 -10 10 -10 6 0 10 5 10 10 0 6 -4 10 -10 10 -5 0 -10 -4 -10 -10z"/>
<path d="M1190 3275 c0 -8 5 -15 10 -15 6 0 10 7 10 15 0 8 -4 15 -10 15 -5 0 -10 -7 -10 -15z"/>
<path d="M4230 3275 c0 -8 5 -15 10 -15 6 0 10 7 10 15 0 8 -4 15 -10 15 -5 0 -10 -7 -10 -15z"/>
<path d="M2140 3195 c-41 -41 -72 -76 -69 -77 2 -2 39 32 81 75 42 42 73 77 70 77 -4 0 -41 -34 -82 -75z"/>
<path d="M3288 3193 c42 -43 79 -77 81 -75 6 3 -141 152 -151 152 -3 0 28 -35 70 -77z"/>
<path d="M1175 3237 c-4 -10 -5 -21 -1 -24 10 -10 18 4 13 24 -4 17 -4 17 -12 0z"/>
<path d="M4250 3231 c0 -12 5 -21 10 -21 6 0 10 6 10 14 0 8 -4 18 -10 21 -5 3 -10 -3 -10 -14z"/>
<path d="M1150 3175 c0 -8 5 -15 10 -15 6 0 10 7 10 15 0 8 -4 15 -10 15 -5 0 -10 -7 -10 -15z"/>
<path d="M4270 3175 c0 -8 5 -15 10 -15 6 0 10 7 10 15 0 8 -4 15 -10 15 -5 0 -10 -7 -10 -15z"/>
<path d="M1130 3109 c0 -11 5 -17 10 -14 6 3 10 13 10 21 0 8 -4 14 -10 14 -5 0 -10 -9 -10 -21z"/>
<path d="M4290 3116 c0 -8 5 -18 10 -21 6 -3 10 3 10 14 0 12 -4 21 -10 21 -5 0 -10 -6 -10 -14z"/>
<path d="M2037 3073 c-4 -3 -7 -11 -7 -17 0 -6 5 -5 12 2 6 6 9 14 7 17 -3 3 -9 2 -12 -2z"/>
<path d="M3390 3071 c0 -5 5 -13 10 -16 6 -3 10 -2 10 4 0 5 -4 13 -10 16 -5 3 -10 2 -10 -4z"/>
<path d="M1117 3063 c-11 -10 -8 -43 3 -43 6 0 10 11 10 25 0 26 -2 29 -13 18z"/>
<path d="M4310 3046 c0 -14 5 -26 10 -26 6 0 10 9 10 19 0 11 -4 23 -10 26 -6 4 -10 -5 -10 -19z"/>
<path d="M2010 3030 c0 -5 5 -10 10 -10 6 0 10 5 10 10 0 6 -4 10 -10 10 -5 0 -10 -4 -10 -10z"/>
<path d="M3410 3030 c0 -5 5 -10 10 -10 6 0 10 5 10 10 0 6 -4 10 -10 10 -5 0 -10 -4 -10 -10z"/>
<path d="M1990 2990 c0 -5 5 -10 10 -10 6 0 10 5 10 10 0 6 -4 10 -10 10 -5 0 -10 -4 -10 -10z"/>
<path d="M3430 2990 c0 -5 5 -10 10 -10 6 0 10 5 10 10 0 6 -4 10 -10 10 -5 0 -10 -4 -10 -10z"/>
<path d="M1098 2984 c-5 -4 -8 -21 -8 -38 0 -21 3 -27 11 -19 6 6 9 23 7 38 -2 15 -6 23 -10 19z"/>
<path d="M4330 2961 c0 -16 5 -33 10 -36 6 -4 10 6 10 24 0 16 -4 33 -10 36 -6 4 -10 -6 -10 -24z"/>
<path d="M1970 2944 c0 -8 5 -12 10 -9 6 3 10 10 10 16 0 5 -4 9 -10 9 -5 0 -10 -7 -10 -16z"/>
<path d="M3450 2951 c0 -6 5 -13 10 -16 6 -3 10 1 10 9 0 9 -4 16 -10 16 -5 0 -10 -4 -10 -9z"/>
<path d="M1955 2907 c-4 -10 -5 -21 -1 -24 10 -10 18 4 13 24 -4 17 -4 17 -12 0z"/>
<path d="M3470 2901 c0 -12 5 -21 10 -21 6 0 10 6 10 14 0 8 -4 18 -10 21 -5 3 -10 -3 -10 -14z"/>
<path d="M1078 2874 c-5 -4 -8 -30 -8 -58 0 -35 3 -47 11 -39 5 5 9 32 7 58 -2 26 -6 43 -10 39z"/>
<path d="M4350 2831 c0 -27 5 -53 10 -56 6 -4 10 13 10 44 0 27 -4 53 -10 56 -6 4 -10 -13 -10 -44z"/>
<path d="M1930 2824 c0 -14 4 -23 10 -19 6 3 10 15 10 26 0 10 -4 19 -10 19 -5 0 -10 -12 -10 -26z"/>
<path d="M3490 2831 c0 -11 5 -23 10 -26 6 -4 10 5 10 19 0 14 -4 26 -10 26 -5 0 -10 -9 -10 -19z"/>
<path d="M1910 2630 c0 -80 4 -130 10 -130 6 0 10 50 10 130 0 80 -4 130 -10 130 -6 0 -10 -50 -10 -130z"/>
<path d="M3510 2630 c0 -80 4 -130 10 -130 6 0 10 50 10 130 0 80 -4 130 -10 130 -6 0 -10 -50 -10 -130z"/>
<path d="M1070 2441 c0 -27 5 -53 10 -56 6 -4 10 13 10 44 0 27 -4 53 -10 56 -6 4 -10 -13 -10 -44z"/>
<path d="M4358 2484 c-5 -4 -8 -30 -8 -58 0 -35 3 -47 11 -39 5 5 9 32 7 58 -2 26 -6 43 -10 39z"/>
<path d="M1930 2436 c0 -14 5 -28 10 -31 6 -3 10 5 10 19 0 14 -4 28 -10 31 -6 3 -10 -5 -10 -19z"/>
<path d="M3498 2454 c-5 -4 -8 -19 -8 -33 0 -18 3 -22 11 -14 6 6 9 21 7 33 -1 12 -6 18 -10 14z"/>
<path d="M1950 2366 c0 -8 5 -18 10 -21 6 -3 10 3 10 14 0 12 -4 21 -10 21 -5 0 -10 -6 -10 -14z"/>
<path d="M3470 2359 c0 -11 5 -17 10 -14 6 3 10 13 10 21 0 8 -4 14 -10 14 -5 0 -10 -9 -10 -21z"/>
<path d="M1090 2311 c0 -16 5 -33 10 -36 6 -4 10 6 10 24 0 16 -4 33 -10 36 -6 4 -10 -6 -10 -24z"/>
<path d="M4330 2304 c0 -21 4 -33 10 -29 6 3 10 19 10 36 0 16 -4 29 -10 29 -5 0 -10 -16 -10 -36z"/>
<path d="M1970 2316 c0 -9 5 -16 10 -16 6 0 10 4 10 9 0 6 -4 13 -10 16 -5 3 -10 -1 -10 -9z"/>
<path d="M3456 2321 c-4 -7 -5 -15 -2 -18 9 -9 19 4 14 18 -4 11 -6 11 -12 0z"/>
<path d="M1990 2270 c0 -5 5 -10 10 -10 6 0 10 5 10 10 0 6 -4 10 -10 10 -5 0 -10 -4 -10 -10z"/>
<path d="M3430 2270 c0 -5 5 -10 10 -10 6 0 10 5 10 10 0 6 -4 10 -10 10 -5 0 -10 -4 -10 -10z"/>
<path d="M1110 2221 c0 -11 5 -23 10 -26 6 -4 10 5 10 19 0 14 -4 26 -10 26 -5 0 -10 -9 -10 -19z"/>
<path d="M2010 2230 c0 -5 5 -10 10 -10 6 0 10 5 10 10 0 6 -4 10 -10 10 -5 0 -10 -4 -10 -10z"/>
<path d="M3410 2230 c0 -5 5 -10 10 -10 6 0 10 5 10 10 0 6 -4 10 -10 10 -5 0 -10 -4 -10 -10z"/>
<path d="M4310 2214 c0 -14 4 -23 10 -19 6 3 10 15 10 26 0 10 -4 19 -10 19 -5 0 -10 -12 -10 -26z"/>
<path d="M2030 2201 c0 -5 5 -13 10 -16 6 -3 10 -2 10 4 0 5 -4 13 -10 16 -5 3 -10 2 -10 -4z"/>
<path d="M3397 2203 c-4 -3 -7 -11 -7 -17 0 -6 5 -5 12 2 6 6 9 14 7 17 -3 3 -9 2 -12 -2z"/>
<path d="M1130 2151 c0 -12 5 -21 10 -21 6 0 10 6 10 14 0 8 -4 18 -10 21 -5 3 -10 -3 -10 -14z"/>
<path d="M4295 2157 c-4 -10 -5 -21 -1 -24 10 -10 18 4 13 24 -4 17 -4 17 -12 0z"/>
<path d="M2070 2140 c0 -8 149 -155 153 -149 1 2 -32 38 -75 79 -43 42 -78 73 -78 70z"/>
<path d="M3288 2068 c-42 -43 -73 -78 -70 -78 10 0 157 149 151 152 -2 2 -39 -32 -81 -74z"/>
<path d="M1150 2085 c0 -8 5 -15 10 -15 6 0 10 7 10 15 0 8 -4 15 -10 15 -5 0 -10 -7 -10 -15z"/>
<path d="M4270 2085 c0 -8 5 -15 10 -15 6 0 10 7 10 15 0 8 -4 15 -10 15 -5 0 -10 -7 -10 -15z"/>
<path d="M1170 2036 c0 -8 5 -18 10 -21 6 -3 10 3 10 14 0 12 -4 21 -10 21 -5 0 -10 -6 -10 -14z"/>
<path d="M4250 2029 c0 -11 5 -17 10 -14 6 3 10 13 10 21 0 8 -4 14 -10 14 -5 0 -10 -9 -10 -21z"/>
<path d="M1190 1985 c0 -8 5 -15 10 -15 6 0 10 7 10 15 0 8 -4 15 -10 15 -5 0 -10 -7 -10 -15z"/>
<path d="M4230 1985 c0 -8 5 -15 10 -15 6 0 10 7 10 15 0 8 -4 15 -10 15 -5 0 -10 -7 -10 -15z"/>
<path d="M2260 1960 c0 -5 5 -10 10 -10 6 0 10 5 10 10 0 6 -4 10 -10 10 -5 0 -10 -4 -10 -10z"/>
<path d="M3160 1960 c0 -5 5 -10 10 -10 6 0 10 5 10 10 0 6 -4 10 -10 10 -5 0 -10 -4 -10 -10z"/>
<path d="M1210 1940 c0 -5 5 -10 10 -10 6 0 10 5 10 10 0 6 -4 10 -10 10 -5 0 -10 -4 -10 -10z"/>
<path d="M2295 1940 c-3 -5 -1 -10 4 -10 6 0 11 5 11 10 0 6 -2 10 -4 10 -3 0 -8 -4 -11 -10z"/>
<path d="M3130 1940 c0 -5 5 -10 11 -10 5 0 7 5 4 10 -3 6 -8 10 -11 10 -2 0 -4 -4 -4 -10z"/>
<path d="M4210 1940 c0 -5 5 -10 10 -10 6 0 10 5 10 10 0 6 -4 10 -10 10 -5 0 -10 -4 -10 -10z"/>
<path d="M2325 1920 c3 -5 10 -10 16 -10 5 0 9 5 9 10 0 6 -7 10 -16 10 -8 0 -12 -4 -9 -10z"/>
<path d="M3090 1920 c0 -5 4 -10 9 -10 6 0 13 5 16 10 3 6 -1 10 -9 10 -9 0 -16 -4 -16 -10z"/>
<path d="M1230 1900 c0 -5 5 -10 10 -10 6 0 10 5 10 10 0 6 -4 10 -10 10 -5 0 -10 -4 -10 -10z"/>
<path d="M2365 1900 c3 -5 10 -10 16 -10 5 0 9 5 9 10 0 6 -7 10 -16 10 -8 0 -12 -4 -9 -10z"/>
<path d="M3050 1900 c0 -5 4 -10 9 -10 6 0 13 5 16 10 3 6 -1 10 -9 10 -9 0 -16 -4 -16 -10z"/>
<path d="M4190 1900 c0 -5 5 -10 10 -10 6 0 10 5 10 10 0 6 -4 10 -10 10 -5 0 -10 -4 -10 -10z"/>
<path d="M2410 1880 c0 -5 9 -10 21 -10 11 0 17 5 14 10 -3 6 -13 10 -21 10 -8 0 -14 -4 -14 -10z"/>
<path d="M2995 1880 c-3 -5 3 -10 14 -10 12 0 21 5 21 10 0 6 -6 10 -14 10 -8 0 -18 -4 -21 -10z"/>
<path d="M1250 1860 c0 -5 5 -10 10 -10 6 0 10 5 10 10 0 6 -4 10 -10 10 -5 0 -10 -4 -10 -10z"/>
<path d="M2465 1860 c3 -5 15 -10 26 -10 11 0 17 5 14 10 -3 6 -15 10 -26 10 -11 0 -17 -4 -14 -10z"/>
<path d="M2935 1860 c-3 -5 3 -10 14 -10 11 0 23 5 26 10 3 6 -3 10 -14 10 -11 0 -23 -4 -26 -10z"/>
<path d="M4170 1860 c0 -5 5 -10 10 -10 6 0 10 5 10 10 0 6 -4 10 -10 10 -5 0 -10 -4 -10 -10z"/>
<path d="M2540 1840 c0 -5 16 -10 36 -10 21 0 33 4 29 10 -3 6 -19 10 -36 10 -16 0 -29 -4 -29 -10z"/>
<path d="M2835 1840 c-4 -6 8 -10 29 -10 20 0 36 5 36 10 0 6 -13 10 -29 10 -17 0 -33 -4 -36 -10z"/>
<path d="M1270 1826 c0 -9 5 -16 10 -16 6 0 10 4 10 9 0 6 -4 13 -10 16 -5 3 -10 -1 -10 -9z"/>
<path d="M4156 1831 c-4 -7 -5 -15 -2 -18 9 -9 19 4 14 18 -4 11 -6 11 -12 0z"/>
<path d="M2695 1820 c3 -5 15 -10 25 -10 10 0 22 5 25 10 4 6 -7 10 -25 10 -18 0 -29 -4 -25 -10z"/>
<path d="M1290 1790 c0 -5 5 -10 10 -10 6 0 10 5 10 10 0 6 -4 10 -10 10 -5 0 -10 -4 -10 -10z"/>
<path d="M4130 1790 c0 -5 5 -10 10 -10 6 0 10 5 10 10 0 6 -4 10 -10 10 -5 0 -10 -4 -10 -10z"/>
<path d="M1330 1731 c0 -5 5 -13 10 -16 6 -3 10 -2 10 4 0 5 -4 13 -10 16 -5 3 -10 2 -10 -4z"/>
<path d="M4097 1733 c-4 -3 -7 -11 -7 -17 0 -6 5 -5 12 2 6 6 9 14 7 17 -3 3 -9 2 -12 -2z"/>
<path d="M1350 1680 c0 -11 5 -20 10 -20 6 0 10 9 10 20 0 11 -4 20 -10 20 -5 0 -10 -9 -10 -20z"/>
<path d="M4070 1686 c0 -8 5 -18 10 -21 6 -3 10 3 10 14 0 12 -4 21 -10 21 -5 0 -10 -6 -10 -14z"/>
<path d="M1330 1614 c0 -8 5 -12 10 -9 6 3 10 10 10 16 0 5 -4 9 -10 9 -5 0 -10 -7 -10 -16z"/>
<path d="M4090 1623 c1 -10 26 -43 33 -43 3 0 0 11 -6 25 -11 23 -27 34 -27 18z"/>
<path d="M1210 1450 c0 -16 5 -30 10 -30 6 0 10 14 10 30 0 17 -4 30 -10 30 -5 0 -10 -13 -10 -30z"/>
<path d="M4210 1450 c0 -16 5 -30 10 -30 6 0 10 14 10 30 0 17 -4 30 -10 30 -5 0 -10 -13 -10 -30z"/>
<path d="M1217 1373 c-11 -10 -8 -73 3 -73 6 0 10 18 10 40 0 41 -2 45 -13 33z"/>
<path d="M4210 1341 c0 -23 5 -41 10 -41 6 0 10 15 10 34 0 19 -4 38 -10 41 -6 4 -10 -10 -10 -34z"/>
<path d="M1240 1280 c0 -7 500 -10 1480 -10 980 0 1480 3 1480 10 0 7 -500 10 -1480 10 -980 0 -1480 -3 -1480 -10z"/>
<path d="M270 833 c0 -18 5 -33 10 -33 13 0 13 30 0 50 -7 11 -10 7 -10 -17z"/>
<path d="M5156 837 c-5 -15 -6 -31 -2 -34 11 -11 18 5 14 34 l-4 28 -8 -28z"/>
<path d="M290 773 c0 -13 5 -23 10 -23 13 0 13 11 0 30 -8 12 -10 11 -10 -7z"/>
<path d="M5137 776 c-4 -10 -5 -21 -2 -24 9 -9 17 6 13 25 -3 17 -4 17 -11 -1z"/>
<path d="M695 360 c-4 -6 3 -10 14 -10 25 0 27 6 6 13 -8 4 -17 2 -20 -3z"/>
<path d="M4720 360 c-12 -8 -10 -10 8 -10 13 0 20 4 17 10 -7 12 -6 12 -25 0z"/>
<path d="M740 340 c0 -5 15 -10 33 -10 24 0 28 3 17 10 -20 13 -50 13 -50 0z"/>
<path d="M4650 340 c-11 -7 -7 -10 18 -10 17 0 32 5 32 10 0 13 -30 13 -50 0z"/>
</g>
</g>
</svg>
